<?xml version="1.0" encoding="utf-8"?>
<!-- Generator: Adobe Illustrator 16.0.0, SVG Export Plug-In . SVG Version: 6.00 Build 0)  -->
<!DOCTYPE svg PUBLIC "-//W3C//DTD SVG 1.1//EN" "http://www.w3.org/Graphics/SVG/1.1/DTD/svg11.dtd">
<svg version="1.1" id="Layer_1" xmlns="http://www.w3.org/2000/svg" xmlns:xlink="http://www.w3.org/1999/xlink" x="0px" y="0px"
	 width="491px" height="311px" viewBox="0 0 491 311" enable-background="new 0 0 491 311" xml:space="preserve">
<g>
	<g>
		<rect x="61.456" y="280.125" fill="#FEEE0B" width="370.567" height="21.695"/>
	</g>
	<g>
		<path fill="#FEEE0B" d="M268.549,149.592l23.315-23.311l10.685,35.639v0.019l-2.599,2.314l1.087,1.105
			c-6.67,6.174-14.058,13.17-22.173,21.04h-0.019l-67.255,20.155l56.949-56.962H268.549z"/>
	</g>
	<g>
		<polygon fill="#FEEE0B" points="206.537,168.175 176.986,197.721 157.487,132.64 151.667,113.202 144.686,89.919 140.302,75.257 
			131.62,46.288 256.673,8.824 276.578,75.257 280.98,89.919 281.85,92.862 249.871,124.832 		"/>
	</g>
	<g>
		<path fill="#010101" d="M403.142,282.709H90.335c-1.719,0-3.108-1.394-3.108-3.113V75.257c0-1.719,1.389-3.113,3.108-3.113h49.966
			c1.72,0,3.109,1.394,3.109,3.113c0,1.714-1.389,3.108-3.109,3.108H93.444v198.122h306.591V93.018c0-1.72,1.388-3.113,3.106-3.113
			c1.72,0,3.109,1.393,3.109,3.113v186.578C406.251,281.315,404.861,282.709,403.142,282.709z"/>
	</g>
	<g>
		<path fill="#010101" d="M299.45,78.365h-22.872c-1.72,0-3.107-1.394-3.107-3.108c0-1.719,1.388-3.113,3.107-3.113h22.872
			c1.72,0,3.107,1.394,3.107,3.113C302.558,76.972,301.17,78.365,299.45,78.365z"/>
	</g>
	<g>
		<path fill="#010101" d="M386.609,78.365h-43.721c-1.72,0-3.118-1.394-3.118-3.108c0-1.719,1.398-3.113,3.118-3.113h43.721
			c1.72,0,3.118,1.394,3.118,3.113C389.728,76.972,388.329,78.365,386.609,78.365z"/>
	</g>
	<g>
		<path fill="#010101" d="M432.022,304.928H61.456c-1.709,0-3.108-1.389-3.108-3.107v-21.695c0-1.715,1.398-3.108,3.108-3.108
			h370.567c1.719,0,3.108,1.394,3.108,3.108v21.695C435.131,303.539,433.741,304.928,432.022,304.928z M64.573,298.707h364.341
			v-15.47H64.573V298.707z"/>
	</g>
	<g>
		<path fill="#010101" d="M386.383,258.075H107.104c-1.719,0-3.117-1.394-3.117-3.108V89.924c0-1.719,1.398-3.113,3.117-3.113
			h37.581c1.72,0,3.108,1.394,3.108,3.113c0,1.715-1.388,3.108-3.108,3.108h-34.473v158.821h273.053V110.746
			c0-1.72,1.397-3.113,3.117-3.113s3.108,1.393,3.108,3.113v144.221C389.491,256.682,388.103,258.075,386.383,258.075z"/>
	</g>
	<g>
		<path fill="#010101" d="M284.788,93.032h-3.808c-1.719,0-3.117-1.394-3.117-3.108c0-1.719,1.398-3.113,3.117-3.113h3.808
			c1.72,0,3.107,1.394,3.107,3.113C287.896,91.639,286.508,93.032,284.788,93.032z"/>
	</g>
	<g>
		<path fill="#010101" d="M370.333,93.032h-42.116c-1.71,0-3.108-1.394-3.108-3.108c0-1.719,1.398-3.113,3.108-3.113h42.116
			c1.719,0,3.106,1.394,3.106,3.113C373.439,91.639,372.052,93.032,370.333,93.032z"/>
	</g>
	<g>
		<path fill="#010101" d="M246.744,272.364c-2.362,0-4.289-1.923-4.289-4.289c0-2.367,1.927-4.294,4.289-4.294
			c2.361,0,4.279,1.927,4.279,4.294C251.023,270.441,249.105,272.364,246.744,272.364z M246.744,266.143
			c-1.068,0-1.938,0.869-1.938,1.933c0,1.062,0.869,1.927,1.938,1.927c1.067,0,1.936-0.865,1.936-1.927
			C248.68,267.012,247.812,266.143,246.744,266.143z"/>
	</g>
	<g>
		<path fill="#010101" d="M150.959,258.075c-0.804,0-1.597-0.302-2.202-0.913l-18.554-18.534c-1.219-1.214-1.219-3.184,0-4.398
			l32.565-32.578c1.171-1.167,3.23-1.167,4.393,0l27.604,27.6c1.219,1.215,1.219,3.184,0,4.398l-23.514,23.513
			c-1.209,1.215-3.184,1.215-4.394,0c-1.218-1.213-1.218-3.182,0-4.396l21.313-21.313l-23.203-23.203l-28.172,28.177l16.353,16.339
			c1.219,1.215,1.219,3.184,0,4.396C152.546,257.773,151.752,258.075,150.959,258.075z"/>
	</g>
	<g>
		<path fill="#010101" d="M119.745,258.075c-0.85,0-1.691-0.345-2.305-1.016c-1.134-1.252-1.058-3.18,0.151-4.341l15.55-15.55
			c1.219-1.215,3.184-1.215,4.403,0c1.209,1.213,1.209,3.184,0,4.396l-15.551,15.551c-0.038,0.037-0.123,0.117-0.16,0.151
			C121.238,257.806,120.491,258.075,119.745,258.075z"/>
	</g>
	<g>
		<path fill="#010101" d="M167.926,209.899c-0.803,0-1.596-0.308-2.201-0.913c-1.219-1.213-1.219-3.183,0-4.396l163.89-163.896
			c1.209-1.214,3.184-1.214,4.393,0c1.219,1.219,1.219,3.184,0,4.398l-163.89,163.894
			C169.513,209.592,168.719,209.899,167.926,209.899z"/>
	</g>
	<g>
		<path fill="#010101" d="M268.549,152.701c-0.794,0-1.588-0.302-2.192-0.912c-1.22-1.214-1.22-3.184,0-4.397l84.968-84.982
			c1.21-1.219,3.175-1.219,4.393-0.005c1.22,1.214,1.22,3.184,0,4.398l-84.968,84.987
			C270.145,152.398,269.352,152.701,268.549,152.701z"/>
	</g>
	<g>
		<path fill="#010101" d="M211.59,209.662c-0.803,0-1.596-0.303-2.201-0.911c-1.219-1.209-1.219-3.18,0-4.397l56.948-56.962
			c1.218-1.214,3.184-1.214,4.393,0c1.219,1.214,1.219,3.183,0,4.397l-56.947,56.962
			C213.178,209.359,212.384,209.662,211.59,209.662z"/>
	</g>
	<g>
		<path fill="#010101" d="M189.626,231.622c-0.794,0-1.587-0.302-2.192-0.911c-1.219-1.214-1.219-3.184,0-4.397l21.936-21.96
			c1.218-1.214,3.184-1.21,4.402,0c1.209,1.213,1.209,3.184,0,4.397l-21.946,21.96C191.223,231.32,190.429,231.622,189.626,231.622z
			"/>
	</g>
	<g>
		<path fill="#010101" d="M352.836,67.029c-0.812,0-1.605-0.322-2.201-0.912l-20.34-20.339c-0.709-0.708-1.03-1.72-0.869-2.707
			c0.17-0.992,0.803-1.842,1.7-2.281l39.98-19.641c1.2-0.585,2.636-0.349,3.571,0.591c0.945,0.94,1.181,2.376,0.596,3.571
			l-19.642,39.98c-0.443,0.902-1.294,1.536-2.286,1.696C353.176,67.015,353.006,67.029,352.836,67.029z M337.768,44.455
			l14.199,14.194l13.698-27.898L337.768,44.455z"/>
	</g>
	<g>
		<path fill="#010101" d="M178.771,220.753c-0.793,0-1.587-0.307-2.192-0.911c-1.218-1.214-1.218-3.184,0-4.397L340.47,51.549
			c1.209-1.214,3.184-1.214,4.394,0c1.218,1.214,1.218,3.184,0,4.397L180.972,219.842
			C180.368,220.446,179.575,220.753,178.771,220.753z"/>
	</g>
	<g>
		<path fill="#010101" d="M314.642,182.077c-0.822,0-1.616-0.326-2.192-0.912l-14.719-14.729c-0.596-0.604-0.917-1.431-0.888-2.281
			c0.028-0.85,0.396-1.653,1.038-2.22l2.4-2.145c0.066-0.066,0.122-0.128,0.188-0.185l54.228-48.596
			c1.228-1.101,3.099-1.054,4.261,0.108l8.823,8.819c1.162,1.167,1.21,3.038,0.104,4.266l-50.93,56.839
			c-0.567,0.638-1.371,1.011-2.229,1.035C314.697,182.077,314.669,182.077,314.642,182.077z M304.467,164.392l10.052,10.052
			l46.772-52.201l-4.638-4.633l-51.837,46.456c-0.066,0.066-0.133,0.133-0.199,0.194L304.467,164.392z"/>
	</g>
	<g>
		<path fill="#010101" d="M237.467,258.075c-0.813,0-1.625-0.317-2.239-0.945c-1.19-1.232-1.161-3.202,0.076-4.397
			c11.251-10.926,21.738-21.247,31.157-30.68c17.477-17.478,32.555-33.061,44.798-46.301c1.162-1.266,3.127-1.337,4.393-0.175
			c1.257,1.167,1.342,3.137,0.171,4.397c-12.301,13.302-27.426,28.941-44.959,46.476c-9.447,9.457-19.953,19.802-31.233,30.746
			C239.025,257.782,238.242,258.075,237.467,258.075z"/>
	</g>
	<g>
		<path fill="#010101" d="M278.864,189.512c-0.813,0-1.625-0.316-2.239-0.944c-1.189-1.238-1.162-3.203,0.066-4.398
			c7.851-7.609,15.333-14.704,22.229-21.091c1.256-1.171,3.23-1.091,4.402,0.17c1.162,1.262,1.086,3.227-0.171,4.394
			c-6.867,6.353-14.312,13.415-22.125,20.991C280.423,189.219,279.639,189.512,278.864,189.512z"/>
	</g>
	<g>
		<path fill="#010101" d="M210.901,258.075c-0.775,0-1.549-0.288-2.154-0.865c-1.238-1.189-1.275-3.159-0.094-4.397
			c14.803-15.441,29.541-30.505,43.815-44.77c8.295-8.305,16.447-16.335,24.213-23.874c1.229-1.194,3.203-1.172,4.393,0.066
			c1.201,1.232,1.172,3.203-0.065,4.397c-7.747,7.516-15.872,15.526-24.147,23.808c-14.236,14.236-28.946,29.268-43.711,44.676
			C212.535,257.753,211.723,258.075,210.901,258.075z"/>
	</g>
	<g>
		<path fill="#010101" d="M365.335,125.006c-1.464,0-2.778-1.044-3.052-2.542c-0.313-1.691,0.803-3.316,2.484-3.627
			c5.46-1.016,12.621-4.847,19.66-10.515c2.504-2.021,4.922-4.194,7.189-6.461c3.089-3.089,6.122-6.68,9.013-10.671
			c11.932-16.476,17.714-34.393,17.77-34.567c0.171-0.529,0.473-1.006,0.879-1.379c1.266-1.157,3.241-1.072,4.402,0.203
			c0.841,0.926,1.021,2.22,0.566,3.302c-0.803,2.404-6.84,19.877-18.582,36.093c-3.08,4.256-6.33,8.096-9.655,11.417
			c-2.419,2.418-4.998,4.742-7.671,6.906c-7.823,6.297-15.994,10.59-22.428,11.786C365.722,124.987,365.523,125.006,365.335,125.006
			z"/>
	</g>
	<g>
		<path fill="#010101" d="M357.012,116.669c-0.189,0-0.387-0.019-0.576-0.052c-1.691-0.316-2.807-1.941-2.484-3.627
			c1.351-7.265,6.48-16.41,14.057-25.097c1.361-1.596,2.929-3.283,4.639-4.993c3.543-3.547,7.643-6.972,12.168-10.179
			c17.1-12.177,35.427-18.082,35.617-18.139c1.624-0.515,3.382,0.382,3.9,2.022c0.521,1.634-0.387,3.382-2.021,3.906
			c-0.171,0.052-17.838,5.843-33.897,17.279c-4.241,3.009-8.067,6.207-11.374,9.508c-1.588,1.592-3.052,3.16-4.326,4.658
			c-6.784,7.785-11.508,16.065-12.65,22.172C359.78,115.625,358.476,116.669,357.012,116.669z"/>
	</g>
	<g>
		<path fill="#010101" d="M176.986,200.835c-1.342,0-2.57-0.874-2.977-2.221L128.645,47.18c-0.492-1.649,0.443-3.382,2.088-3.874
			L255.775,5.844c1.644-0.491,3.383,0.439,3.873,2.088l25.177,84.047c0.492,1.644-0.444,3.377-2.097,3.864
			c-1.654,0.486-3.373-0.454-3.864-2.097l-5.271-17.596l-19.008-63.457L135.494,48.371l44.477,148.458
			c0.492,1.643-0.444,3.377-2.087,3.873C177.581,200.792,177.279,200.835,176.986,200.835z"/>
	</g>
	<g>
		<path fill="#010101" d="M302.549,165.039c-1.475,0-2.702-1.012-3.023-2.376l-10.638-35.489c-0.501-1.649,0.435-3.382,2.079-3.873
			c1.653-0.492,3.382,0.439,3.873,2.088l10.685,35.639c0.085,0.293,0.132,0.591,0.132,0.893
			C305.656,163.641,304.268,165.039,302.549,165.039z"/>
	</g>
	<g>
		<path fill="#010101" d="M211.59,209.662c-1.719,0-3.117-1.388-3.117-3.107c0-1.469,1.011-2.702,2.381-3.023l67.103-20.108
			c0.283-0.09,0.586-0.133,0.889-0.133c1.72,0,3.117,1.395,3.117,3.109c0,1.469-1.011,2.701-2.381,3.027l-67.103,20.108
			C212.196,209.62,211.893,209.662,211.59,209.662z"/>
	</g>
	<g>
		<path fill="#010101" d="M195.228,174.675c-1.341,0-2.579-0.869-2.976-2.215c-0.5-1.649,0.435-3.383,2.078-3.874l11.309-3.392
			c1.644-0.496,3.382,0.439,3.873,2.088c0.492,1.644-0.435,3.378-2.088,3.869l-11.309,3.392
			C195.823,174.633,195.521,174.675,195.228,174.675z"/>
	</g>
	<g>
		<path fill="#010101" d="M268.549,152.701c-1.711,0-3.119-1.394-3.119-3.108c0-1.469,1.021-2.707,2.391-3.027l3.713-1.105
			c1.653-0.491,3.382,0.449,3.873,2.092c0.491,1.648-0.453,3.382-2.096,3.869l-3.875,1.153
			C269.152,152.658,268.85,152.701,268.549,152.701z"/>
	</g>
	<g>
		<path fill="#010101" d="M186.877,146.81c-1.342,0-2.58-0.874-2.977-2.22c-0.491-1.644,0.435-3.377,2.088-3.874l62.994-18.866
			c1.645-0.492,3.383,0.444,3.873,2.092c0.492,1.644-0.443,3.377-2.088,3.869l-63.002,18.866
			C187.472,146.768,187.17,146.81,186.877,146.81z"/>
	</g>
	<g>
		<path fill="#010101" d="M178.544,118.955c-1.342,0-2.579-0.869-2.985-2.215c-0.491-1.648,0.444-3.382,2.088-3.874l77.184-23.126
			c1.644-0.491,3.372,0.444,3.873,2.088c0.491,1.648-0.444,3.377-2.088,3.873l-77.184,23.122
			C179.139,118.913,178.837,118.955,178.544,118.955z"/>
	</g>
	<g>
		<path fill="#010101" d="M170.193,91.09c-1.341,0-2.58-0.874-2.986-2.22c-0.491-1.644,0.444-3.377,2.088-3.873l77.193-23.123
			c1.645-0.496,3.383,0.439,3.874,2.083c0.491,1.649-0.435,3.382-2.088,3.874l-77.193,23.127
			C170.789,91.048,170.486,91.09,170.193,91.09z"/>
	</g>
	<g>
		<path fill="#010101" d="M365.977,236.054h-71.534c-1.72,0-3.107-1.394-3.107-3.108c0-1.72,1.388-3.113,3.107-3.113h71.534
			c1.72,0,3.108,1.394,3.108,3.113C369.085,234.66,367.696,236.054,365.977,236.054z"/>
	</g>
	<g>
		<path fill="#010101" d="M365.977,216.616h-49.229c-1.72,0-3.118-1.394-3.118-3.113c0-1.715,1.398-3.108,3.118-3.108h49.229
			c1.72,0,3.108,1.394,3.108,3.108C369.085,215.223,367.696,216.616,365.977,216.616z"/>
	</g>
	<g>
		<path fill="#010101" d="M365.977,197.179h-28.502c-1.719,0-3.107-1.394-3.107-3.113c0-1.715,1.389-3.108,3.107-3.108h28.502
			c1.72,0,3.108,1.394,3.108,3.108C369.085,195.785,367.696,197.179,365.977,197.179z"/>
	</g>
	<g>
		<path fill="#010101" d="M151.667,116.31h-24.129c-1.719,0-3.117-1.394-3.117-3.108c0-1.719,1.398-3.108,3.117-3.108h24.129
			c1.719,0,3.117,1.389,3.117,3.108C154.785,114.917,153.386,116.31,151.667,116.31z"/>
	</g>
	<g>
		<path fill="#010101" d="M157.487,135.752h-29.948c-1.719,0-3.117-1.394-3.117-3.113c0-1.72,1.398-3.108,3.117-3.108h29.948
			c1.719,0,3.108,1.389,3.108,3.108C160.595,134.359,159.206,135.752,157.487,135.752z"/>
	</g>
	<g>
		<path fill="#010101" d="M156.041,155.19h-28.502c-1.719,0-3.117-1.393-3.117-3.113c0-1.714,1.398-3.108,3.117-3.108h28.502
			c1.72,0,3.108,1.394,3.108,3.108C159.149,153.797,157.761,155.19,156.041,155.19z"/>
	</g>
	<g>
		<path fill="#010101" d="M330.398,115.786c-0.803,0-1.596-0.307-2.2-0.917c-1.22-1.219-1.21-3.188,0-4.397l4.402-4.388
			c1.218-1.209,3.193-1.209,4.402,0.009c1.209,1.214,1.209,3.184-0.01,4.398l-4.402,4.383
			C331.986,115.479,331.192,115.786,330.398,115.786z"/>
	</g>
	<g>
		<path fill="#010101" d="M314.631,131.553c-0.802,0-1.596-0.307-2.2-0.911c-1.219-1.219-1.219-3.184,0-4.397l4.402-4.403
			c1.209-1.214,3.184-1.214,4.393,0c1.219,1.214,1.219,3.184,0,4.398l-4.402,4.402C316.219,131.246,315.425,131.553,314.631,131.553
			z"/>
	</g>
</g>
</svg>
