<?xml version="1.0" encoding="utf-8"?>
<!-- Generator: Adobe Illustrator 16.0.0, SVG Export Plug-In . SVG Version: 6.00 Build 0)  -->
<!DOCTYPE svg PUBLIC "-//W3C//DTD SVG 1.1//EN" "http://www.w3.org/Graphics/SVG/1.1/DTD/svg11.dtd">
<svg version="1.1" id="Layer_1" xmlns="http://www.w3.org/2000/svg" xmlns:xlink="http://www.w3.org/1999/xlink" x="0px" y="0px"
	 width="105px" height="105px" viewBox="0 0 105 105" style="enable-background:new 0 0 105 105;" xml:space="preserve">
<style type="text/css">
<![CDATA[
	.st0{fill:#F5C416;}
	.st1{fill:#292E33;}
	.st2{fill:#61B4E4;}
	.st3{fill:#FFFFFF;}
	.st4{fill:#FFFFFF;stroke:#292E33;stroke-width:4;}
]]>
</style>
<g>
	<g>
		<g>
			<g>
				<path class="st4" d="M44.1,59.1"/>
			</g>
		</g>
		<g>
			<path class="st3" d="M66.3,39.5c0-6-2.3-11.5-6.5-15.7c-4.2-4.2-9.8-6.5-15.8-6.5c-5.9,0-11.5,2.3-15.7,6.5
				c-8.7,8.7-8.7,22.8,0,31.5c4.2,4.2,9.8,6.5,15.8,6.5c5.9,0,11.5-2.3,15.7-6.5C64,51.1,66.3,45.5,66.3,39.5z"/>
			<path class="st1" d="M44.1,63.8c-6.5,0-12.6-2.5-17.2-7.1c-4.6-4.6-7.1-10.7-7.1-17.1c0-6.5,2.5-12.6,7.1-17.2
				c4.6-4.6,10.6-7.1,17.1-7.1c6.5,0,12.6,2.5,17.2,7.1c4.6,4.6,7.1,10.7,7.1,17.1c0,6.5-2.5,12.6-7.1,17.2
				C56.6,61.3,50.6,63.8,44.1,63.8L44.1,63.8z M44.1,19.3c-5.5,0-10.5,2.1-14.3,5.9c-3.8,3.8-5.9,8.9-5.9,14.3
				c0,5.4,2.1,10.5,5.9,14.3c3.8,3.8,8.9,5.9,14.3,5.9v2l0-2c5.4,0,10.5-2.1,14.3-5.9c3.8-3.8,5.9-8.9,5.9-14.3
				c0-5.4-2.1-10.5-5.9-14.3C54.5,21.4,49.5,19.3,44.1,19.3z"/>
		</g>
		<g>
			<path class="st2" d="M56.2,51.6c-3.3,3.3-7.6,5.1-12.2,5.1c-9.5,0-17.2-7.7-17.2-17.1c0-4.6,1.8-8.9,5-12.1
				c3.2-3.3,7.6-5.1,12.1-5.1c4.6,0,8.9,1.8,12.1,5c3.2,3.2,5,7.5,5,12.1C61.2,44.1,59.4,48.4,56.2,51.6z"/>
			<g>
				<path class="st3" d="M32.9,39.6h-4c0-3.9,1.5-7.7,4.3-10.5c2.8-2.8,6.5-4.4,10.5-4.4v4c-2.9,0-5.6,1.1-7.7,3.2
					C34,34,32.9,36.7,32.9,39.6z"/>
			</g>
		</g>
		<rect x="37.5" y="74.4" class="st0" width="13" height="21.2"/>
		<g>
			<polyline class="st3" points="39.5,74.4 39.5,69.9 48.6,69.9 48.6,74.4 			"/>
			<polygon class="st1" points="41.5,74.4 37.5,74.4 37.5,67.9 50.6,67.9 50.6,74.4 46.6,74.4 46.6,71.9 41.5,71.9 			"/>
		</g>
		<g>
			<path class="st3" d="M48.6,95.6c0,0.7,0,1.5,0,2.2c-2.5,2.5-6.6,2.5-9.1,0c0-0.7,0-1.5,0-2.2"/>
			<path class="st1" d="M44.1,101.7L44.1,101.7c-2.3,0-4.4-0.9-6-2.5l-0.6-0.6v-3h4v1.3c0.7,0.5,1.6,0.8,2.5,0.8l0,0
				c0.9,0,1.8-0.3,2.5-0.8l0-1.3h4l0,3L50,99.2C48.4,100.8,46.3,101.7,44.1,101.7z"/>
		</g>
		<g>
			<g>
				<g>
					<rect x="45.5" y="62" class="st1" width="4" height="6.8"/>
				</g>
			</g>
			<g>
				<g>
					<rect x="38.6" y="62" class="st1" width="4" height="6.8"/>
				</g>
			</g>
		</g>
	</g>
	<g>
		<path class="st1" d="M93.3,71.8c-0.1,0-0.2,0-0.4,0l-0.3,0H54.2v-4h37l0-0.1l1.5,0.1c0.2,0,0.4,0,0.5,0c3.5,0,6.3-2.8,6.3-6.3
			c0-3.4-2.7-6.2-6.1-6.3l-2.2-0.1l0.3-2.2c0.1-0.7,0.1-1.3,0.1-1.9c0-8.9-7.2-16.1-16.1-16.1c-0.6,0-1.3,0-2,0.1l-1.8,0.2l-0.4-1.8
			c-1.1-5.2-3.7-10-7.6-13.8c-5.3-5.3-12.3-8.2-19.8-8.2c0,0,0,0-0.1,0c-7.5,0-14.5,2.9-19.8,8.2c-5,5-7.9,11.7-8.2,18.7l-0.1,1.3
			l-1.3,0.5c-5.6,2.1-9.3,7.4-9.3,13.3c0,7.8,6.4,14.2,14.2,14.2h14.3v4H19.6c-10,0-18.2-8.2-18.2-18.2C1.4,46.5,5.6,40,12.1,37
			c0.6-7.6,3.9-14.7,9.3-20.1c6-6,14-9.4,22.6-9.4c8.6-0.1,16.6,3.3,22.7,9.4c3.9,3.9,6.8,8.8,8.2,14.1c0.2,0,0.5,0,0.7,0
			c11.1,0,20.1,9,20.1,20.1c0,0.1,0,0.3,0,0.4c4.6,1.1,7.9,5.1,7.9,10C103.6,67.2,99,71.8,93.3,71.8z"/>
	</g>
</g>
</svg>
