<?xml version="1.0" encoding="utf-8"?>
<!-- Generator: Adobe Illustrator 16.0.0, SVG Export Plug-In . SVG Version: 6.00 Build 0)  -->
<!DOCTYPE svg PUBLIC "-//W3C//DTD SVG 1.1//EN" "http://www.w3.org/Graphics/SVG/1.1/DTD/svg11.dtd">
<svg version="1.1" id="Layer_1" xmlns="http://www.w3.org/2000/svg" xmlns:xlink="http://www.w3.org/1999/xlink" x="0px" y="0px"
	 width="105px" height="105px" viewBox="0 0 105 105" style="enable-background:new 0 0 105 105;" xml:space="preserve">
<style type="text/css">
<![CDATA[
	.st0{fill:#F5C416;}
	.st1{fill:#FFFFFF;}
]]>
</style>
<g>
	<g>
		<path class="st1" d="M101.1,94.3H25.5L2.5,75.7V46.9l22.9-18.6h75.7V94.3z M26.9,90.3h70.3v-58H26.9L6.5,48.8v25L26.9,90.3z"/>
	</g>
	<circle class="st0" cx="18.1" cy="61.3" r="3.8"/>
	<g>
		<g>
			<g>
				<path class="st1" d="M64.9,75.1h-11c-1.1,0-2-0.9-2-2V49.6c0-1.1,0.9-2,2-2h11c1.1,0,2,0.9,2,2s-0.9,2-2,2h-9v19.5h9
					c1.1,0,2,0.9,2,2S66,75.1,64.9,75.1z"/>
			</g>
			<g>
				<path class="st1" d="M61.4,63.3h-7.6c-1.1,0-2-0.9-2-2s0.9-2,2-2h7.6c1.1,0,2,0.9,2,2S62.6,63.3,61.4,63.3z"/>
			</g>
		</g>
		<g>
			<g>
				<path class="st1" d="M44.1,64.4c-0.2,0-0.5,0-0.7-0.1L37,61.8c-0.1,0-0.2-0.1-0.4-0.2c-2.7-1.7-3.3-3.7-3.3-5v-2.9
					c0-3.4,2.8-6.2,6.2-6.2h3.4c3.4,0,6.2,2.8,6.2,6.2v1.3c0,1.1-0.9,2-2,2s-2-0.9-2-2v-1.3c0-1.2-1-2.2-2.2-2.2h-3.4
					c-1.2,0-2.2,1-2.2,2.2v2.9c0,0.4,0.5,1,1.3,1.5l6.2,2.4c1,0.4,1.5,1.6,1.2,2.6C45.7,63.9,44.9,64.4,44.1,64.4z"/>
			</g>
			<g>
				<path class="st1" d="M42.9,75.1h-3.4c-3.4,0-6.2-2.8-6.2-6.2v-1.3c0-1.1,0.9-2,2-2s2,0.9,2,2v1.3c0,1.2,1,2.2,2.2,2.2h3.4
					c1.2,0,2.2-1,2.2-2.2V66c0-0.3-0.4-0.9-1.4-1.6l-6-2.3c-1-0.4-1.5-1.6-1.1-2.6c0.4-1,1.6-1.5,2.6-1.1l6.1,2.4
					c0.1,0,0.2,0.1,0.4,0.2c2.2,1.4,3.4,3.2,3.4,5.1v2.9C49.2,72.3,46.4,75.1,42.9,75.1z"/>
			</g>
		</g>
		<g>
			<path class="st1" d="M79.1,75.1h-3.4c-3.5,0-6.4-2.9-6.4-6.4V54c0-3.5,2.9-6.4,6.4-6.4h3.4c3.5,0,6.4,2.9,6.4,6.4v14.7
				C85.5,72.2,82.6,75.1,79.1,75.1z M75.7,51.6c-1.3,0-2.4,1.1-2.4,2.4v14.7c0,1.3,1.1,2.4,2.4,2.4h3.4c1.3,0,2.4-1.1,2.4-2.4V54
				c0-1.3-1.1-2.4-2.4-2.4H75.7z"/>
		</g>
	</g>
	<g>
		<path class="st1" d="M18,62.1c-0.6,0-1.3-0.3-1.7-0.9C15.9,60.5,3.6,42,3.6,29.6C3.6,16.3,9.9,5.8,18,5.8
			c6.8,0,12.6,7.6,14.1,18.4c0.1,1.1-0.6,2.1-1.7,2.3c-1.1,0.2-2.1-0.6-2.3-1.7C26.9,16.1,22.7,9.8,18,9.8c-5.6,0-10.4,9-10.4,19.7
			c0,11.3,12,29.3,12.1,29.4c0.6,0.9,0.4,2.2-0.5,2.8C18.8,62,18.4,62.1,18,62.1z"/>
	</g>
</g>
</svg>
