<?xml version="1.0" encoding="utf-8"?>
<!-- Generator: Adobe Illustrator 16.0.0, SVG Export Plug-In . SVG Version: 6.00 Build 0)  -->
<!DOCTYPE svg PUBLIC "-//W3C//DTD SVG 1.1//EN" "http://www.w3.org/Graphics/SVG/1.1/DTD/svg11.dtd">
<svg version="1.1" id="Layer_1" xmlns="http://www.w3.org/2000/svg" xmlns:xlink="http://www.w3.org/1999/xlink" x="0px" y="0px"
	 width="105px" height="105px" viewBox="0 0 105 105" style="enable-background:new 0 0 105 105;" xml:space="preserve">
<style type="text/css">
<![CDATA[
	.st0{fill:#F5C416;}
	.st1{fill:#010101;}
]]>
</style>
<g>
	<g>
		<path class="st0" d="M97.7,45l-18.5,0.2l7.6-16.9C93.6,31.4,97.6,37.6,97.7,45z"/>
	</g>
	<g>
		<path class="st0" d="M77.1,95.1c1.2,1.2,1.2,3.2,0,4.5l-0.9,0.9c-1.2,1.2-3.2,1.2-4.5,0L56.4,85.1c-0.2-0.2-0.3-0.4-0.5-0.6
			c-0.6-1-0.6-2.3,0-3.3c0,0,0-0.1,0-0.1c0.1-0.1,0.1-0.2,0.2-0.3c0.1-0.1,0.1-0.2,0.2-0.2l0.9-0.9c0.1-0.1,0.2-0.1,0.2-0.2
			c0.1-0.1,0.1-0.1,0.2-0.2c0.1,0,0.1-0.1,0.2-0.1c1.2-0.8,2.8-0.6,3.9,0.5L77.1,95.1z"/>
	</g>
	<g>
		<path class="st0" d="M34.8,74.5c1.6,0.7,3.3,1.1,5.1,1.1c2.3,0,4.5-0.6,6.5-1.8c0.8-0.5,1.6-1.1,2.3-1.8c4.8-4.8,4.8-12.6,0-17.5
			c-0.7-0.7-1.5-1.3-2.3-1.8c-2-1.2-4.3-1.8-6.5-1.8c-1.7,0-3.5,0.4-5.1,1.1c-1.3,0.6-2.5,1.4-3.6,2.5c-1.4,1.4-2.3,2.9-2.9,4.6
			c-0.9,2.6-0.9,5.5,0,8.2c0.6,1.7,1.6,3.3,2.9,4.6C32.2,73.1,33.4,73.9,34.8,74.5z M55.9,61.4v3.7c-0.4,3.1-1.6,6.1-3.7,8.5
			c-0.3,0.3-0.6,0.7-0.9,1c-0.2,0.2-0.5,0.4-0.7,0.6c-1.3,1.2-2.8,2.1-4.3,2.7c-2.1,0.9-4.3,1.4-6.5,1.3c-1.7,0-3.4-0.3-5.1-0.8
			c-2.3-0.8-4.5-2.1-6.3-3.9c-0.1-0.1-0.2-0.2-0.2-0.2c-6-6.2-6-16.1,0-22.4c0.1-0.1,0.1-0.2,0.2-0.2c0.7-0.7,1.4-1.3,2.2-1.9
			c2.7-1.9,5.9-2.9,9.1-2.9c2.2,0,4.5,0.4,6.5,1.3c1.8,0.8,3.5,1.9,5,3.4C54,54.5,55.5,57.9,55.9,61.4z"/>
	</g>
	<g>
		<path class="st1" d="M55.9,82.2c-0.5,0-1-0.4-1-1c0-0.5,0.4-1,1-1c0.5,0,1,0.4,1,1v0C56.9,81.8,56.5,82.2,55.9,82.2z"/>
	</g>
	<g>
		<path class="st1" d="M55.9,89.2H7.3c-0.5,0-1-0.4-1-1V21.6c0-0.5,0.4-1,1-1h48.7c0.5,0,1,0.4,1,1v55.8c0,0.5-0.4,1-1,1
			c-0.5,0-1-0.4-1-1V22.6H8.3v64.6h46.7v-2.7c0-0.5,0.4-1,1-1c0.5,0,1,0.4,1,1v3.7C56.9,88.7,56.5,89.2,55.9,89.2z"/>
	</g>
	<g>
		<path class="st1" d="M73.6,74.1H60.8c-0.5,0-1-0.4-1-1s0.4-1,1-1h11.8V7.5H25.9v9.1c0,0.5-0.4,1-1,1s-1-0.4-1-1V6.6
			c0-0.5,0.4-1,1-1h48.7c0.5,0,1,0.4,1,1v66.6C74.5,73.7,74.1,74.1,73.6,74.1z"/>
	</g>
	<g>
		<path class="st1" d="M23.2,83h-6.5c-0.5,0-1-0.4-1-1V60.8c0-0.5,0.4-1,1-1h6.5c0.5,0,1,0.4,1,1V82C24.1,82.5,23.7,83,23.2,83z
			 M17.6,81h4.6V61.7h-4.6V81z"/>
	</g>
	<g>
		<path class="st1" d="M46.4,49.4c-0.5,0-1-0.4-1-1v-7.6h-4.6v6.3c0,0.5-0.4,1-1,1c-0.5,0-1-0.4-1-1v-7.2c0-0.5,0.4-1,1-1h6.5
			c0.5,0,1,0.4,1,1v8.6C47.3,49,46.9,49.4,46.4,49.4z"/>
	</g>
	<g>
		<path class="st1" d="M46.4,74.8c-0.5,0-1-0.4-1-1V52.7c0-0.5,0.4-1,1-1s1,0.4,1,1v21C47.3,74.3,46.9,74.8,46.4,74.8z"/>
	</g>
	<g>
		<path class="st1" d="M46.4,83h-6.5c-0.5,0-1-0.4-1-1v-2.6c0-0.5,0.4-1,1-1c0.5,0,1,0.4,1,1V81h4.6v-2.9c0-0.5,0.4-1,1-1s1,0.4,1,1
			V82C47.3,82.5,46.9,83,46.4,83z"/>
	</g>
	<g>
		<path class="st1" d="M39.8,76.6c-0.5,0-1-0.4-1-1V50.9c0-0.5,0.4-1,1-1c0.5,0,1,0.4,1,1v24.7C40.8,76.2,40.4,76.6,39.8,76.6z"/>
	</g>
	<g>
		<path class="st1" d="M28.2,53.1c-0.5,0-1-0.4-1-1V50c0-0.5,0.4-1,1-1h2.5c0.5,0,1,0.4,1,1s-0.4,1-1,1h-1.5v1.1
			C29.2,52.6,28.8,53.1,28.2,53.1z"/>
	</g>
	<g>
		<path class="st1" d="M34.8,75.5c-0.5,0-1-0.4-1-1V52c0-0.5,0.4-1,1-1c0.5,0,1,0.4,1,1v22.5C35.7,75,35.3,75.5,34.8,75.5z"/>
	</g>
	<g>
		<path class="st1" d="M34.8,83h-6.5c-0.5,0-1-0.4-1-1v-7.5c0-0.5,0.4-1,1-1c0.5,0,1,0.4,1,1V81h4.6v-2.4c0-0.5,0.4-1,1-1
			c0.5,0,1,0.4,1,1V82C35.7,82.5,35.3,83,34.8,83z"/>
	</g>
	<g>
		<path class="st1" d="M28.2,68.3c-0.5,0-1-0.4-1-1v-8.2c0-0.5,0.4-1,1-1c0.5,0,1,0.4,1,1v8.2C29.2,67.9,28.8,68.3,28.2,68.3z"/>
	</g>
	<g>
		<path class="st1" d="M31.5,36.5c-0.3,0-0.5-0.1-0.7-0.3l-4.6-4.6c-0.4-0.4-0.4-1,0-1.4c0.4-0.4,1-0.4,1.4,0l3.9,3.9l3.9-3.9
			c0.4-0.4,1-0.4,1.4,0c0.4,0.4,0.4,1,0,1.4l-4.6,4.6C32,36.4,31.7,36.5,31.5,36.5z"/>
	</g>
	<g>
		<path class="st1" d="M31.5,47.7c-0.5,0-1-0.4-1-1v-8.1c0-0.5,0.4-1,1-1c0.5,0,1,0.4,1,1v8.1C32.5,47.2,32,47.7,31.5,47.7z"/>
	</g>
	<g>
		<path class="st1" d="M65,34.2h-9c-0.5,0-1-0.4-1-1c0-0.5,0.4-1,1-1h9c0.5,0,1,0.4,1,1C65.9,33.7,65.5,34.2,65,34.2z"/>
	</g>
	<g>
		<path class="st1" d="M65,28.6h-9c-0.5,0-1-0.4-1-1c0-0.5,0.4-1,1-1h9c0.5,0,1,0.4,1,1C65.9,28.2,65.5,28.6,65,28.6z"/>
	</g>
	<g>
		<path class="st1" d="M65,39.7h-9c-0.5,0-1-0.4-1-1c0-0.5,0.4-1,1-1h9c0.5,0,1,0.4,1,1C65.9,39.3,65.5,39.7,65,39.7z"/>
	</g>
	<g>
		<path class="st1" d="M65,50.8h-9c-0.5,0-1-0.4-1-1c0-0.5,0.4-1,1-1h9c0.5,0,1,0.4,1,1C65.9,50.3,65.5,50.8,65,50.8z"/>
	</g>
	<g>
		<path class="st1" d="M65,45.2h-5.6c-0.5,0-1-0.4-1-1c0-0.5,0.4-1,1-1H65c0.5,0,1,0.4,1,1C65.9,44.8,65.5,45.2,65,45.2z"/>
	</g>
	<g>
		<path class="st1" d="M65,56.3h-9c-0.5,0-1-0.4-1-1c0-0.5,0.4-1,1-1h9c0.5,0,1,0.4,1,1C65.9,55.8,65.5,56.3,65,56.3z"/>
	</g>
	<g>
		<path class="st1" d="M65,67.3h-9c-0.5,0-1-0.4-1-1c0-0.5,0.4-1,1-1h9c0.5,0,1,0.4,1,1C65.9,66.9,65.5,67.3,65,67.3z"/>
	</g>
	<g>
		<path class="st1" d="M65,61.8h-9c-0.5,0-1-0.4-1-1s0.4-1,1-1h9c0.5,0,1,0.4,1,1S65.5,61.8,65,61.8z"/>
	</g>
	<g>
		<path class="st1" d="M39.9,80.4C39.9,80.4,39.8,80.4,39.9,80.4c-1.9,0-3.7-0.3-5.4-0.9c-2.5-0.8-4.8-2.2-6.7-4.1
			c-0.1-0.1-0.2-0.2-0.3-0.3c-6.4-6.6-6.4-17,0-23.7c0.1-0.1,0.1-0.2,0.2-0.3c0.7-0.7,1.5-1.4,2.4-2c2.8-2,6.2-3,9.7-3
			c0,0,0,0,0.1,0c2.4,0,4.7,0.5,6.8,1.4c2,0.9,3.7,2.1,5.3,3.6c2.7,2.7,4.5,6.3,4.9,10.1c0.2,1.3,0.2,2.7,0,4
			c-0.4,3.4-1.7,6.5-3.9,9.1c-0.4,0.4-1,0.5-1.4,0.1c-0.4-0.4-0.5-1-0.1-1.4c1.9-2.3,3.1-5.1,3.5-8c0.1-1.2,0.1-2.4,0-3.5
			c-0.4-3.4-1.9-6.5-4.3-9c-1.4-1.4-2.9-2.4-4.7-3.2c-1.9-0.8-4-1.3-6.1-1.3c-3.1,0-6.1,0.9-8.6,2.7c-0.7,0.5-1.4,1.1-2.1,1.7
			c-0.1,0.1-0.1,0.1-0.2,0.2c-5.7,5.9-5.7,15.2,0,21c0.1,0.1,0.1,0.2,0.2,0.2c1.7,1.7,3.7,2.9,5.9,3.7c1.5,0.5,3.1,0.8,4.8,0.8
			c0,0,0,0,0.1,0c2.1,0,4.1-0.4,6.1-1.3c1.5-0.6,2.8-1.5,4-2.6c0.4-0.4,1-0.3,1.4,0.1c0.4,0.4,0.3,1-0.1,1.4
			c-1.4,1.2-2.9,2.2-4.5,2.9C44.6,79.9,42.3,80.4,39.9,80.4z"/>
	</g>
	<g>
		<path class="st1" d="M74,102.3c-1.1,0-2.1-0.4-2.9-1.2L55.7,85.8c-0.2-0.2-0.4-0.5-0.6-0.8c-0.8-1.3-0.8-2.9,0-4.2
			c0,0,0-0.1,0.1-0.1c0.3-0.5,0.9-0.6,1.4-0.3c0.5,0.3,0.6,0.9,0.3,1.3c0,0,0,0.1,0,0.1c-0.4,0.7-0.4,1.5,0,2.2
			c0.1,0.2,0.2,0.3,0.3,0.4l15.3,15.3c0.8,0.8,2.2,0.9,3.1,0l0.9-0.9c0.8-0.8,0.8-2.2,0-3.1L61.1,80.5c-0.7-0.7-1.8-0.8-2.7-0.3
			c0,0,0,0-0.1,0c-0.4,0.3-1,0.3-1.4-0.2c-0.3-0.4-0.3-1,0.2-1.4c0.1-0.1,0.2-0.1,0.3-0.2c1.6-1,3.7-0.7,5,0.6l15.3,15.3
			c1.6,1.6,1.6,4.2,0,5.9l-0.9,0.9C76.1,101.9,75,102.3,74,102.3z"/>
	</g>
	<g>
		<path class="st1" d="M57.3,80.8c-0.3,0-0.5-0.1-0.7-0.3c-0.4-0.4-0.4-1,0-1.4c0.1-0.1,0.2-0.2,0.3-0.3c0.4-0.3,1-0.3,1.4,0.1
			c0.3,0.4,0.3,1-0.1,1.4c0,0-0.1,0.1-0.2,0.1C57.8,80.7,57.5,80.8,57.3,80.8z"/>
	</g>
	<g>
		<path class="st1" d="M56.2,81.9c-0.2,0-0.4-0.1-0.6-0.2c-0.4-0.3-0.5-1-0.1-1.4c0.1-0.1,0.2-0.2,0.3-0.3c0.4-0.4,1-0.4,1.4,0
			c0.4,0.4,0.4,1,0,1.4c0,0-0.1,0.1-0.1,0.2C56.8,81.7,56.5,81.9,56.2,81.9z"/>
	</g>
	<g>
		<path class="st1" d="M39.9,76.6L39.9,76.6c-2,0-3.8-0.4-5.5-1.2c-1.4-0.7-2.8-1.6-3.9-2.7c-1.4-1.4-2.5-3.1-3.2-5
			c-1-2.8-1-6,0-8.8c0.7-1.9,1.7-3.6,3.2-5c1.1-1.1,2.4-2,3.9-2.7c1.7-0.8,3.6-1.2,5.5-1.2h0.1c2.5,0,4.9,0.7,7,2
			c0.9,0.5,1.7,1.2,2.4,1.9c2.5,2.5,3.9,5.9,3.9,9.4c0,3.6-1.4,6.9-3.9,9.4c-0.7,0.7-1.6,1.4-2.4,1.9C44.8,75.9,42.4,76.6,39.9,76.6
			z M39.9,51.9L39.9,51.9c-1.7,0-3.2,0.4-4.7,1c-1.2,0.6-2.4,1.3-3.3,2.3c-1.2,1.2-2.1,2.7-2.7,4.3c-0.9,2.4-0.9,5.1,0,7.5
			c0.6,1.6,1.5,3.1,2.7,4.3c1,1,2.1,1.7,3.3,2.3c1.5,0.7,3,1,4.7,1h0.1c2.1,0,4.2-0.6,6-1.7c0.8-0.5,1.5-1,2.1-1.6
			c2.1-2.1,3.3-5,3.3-8c0-3-1.2-5.9-3.3-8c-0.6-0.6-1.3-1.2-2.1-1.7C44.1,52.5,42,51.9,39.9,51.9z"/>
	</g>
	<g>
		<path class="st1" d="M55.9,82.2c-0.3,0-0.5-0.1-0.7-0.3l-5.6-5.6c-0.2-0.2-0.3-0.5-0.3-0.7c0-0.3,0.1-0.5,0.3-0.7
			c0.1-0.1,0.2-0.2,0.3-0.3c0.2-0.2,0.4-0.4,0.6-0.6c0.3-0.3,0.6-0.6,0.9-0.9c0.2-0.2,0.4-0.3,0.7-0.4c0.3,0,0.5,0.1,0.7,0.3
			l5.6,5.6c0.2,0.2,0.3,0.5,0.3,0.8c0,0.3-0.2,0.6-0.5,0.7l-0.1,0c-0.1,0-0.1,0.1-0.2,0.1c0,0-0.1,0.1-0.1,0.1l-0.9,0.9
			C57,81.4,57,81.4,57,81.5c-0.1,0.1-0.1,0.1-0.1,0.2c0,0-0.1,0.1-0.1,0.1C56.5,82.1,56.3,82.2,55.9,82.2C56,82.2,56,82.2,55.9,82.2
			z M51.7,75.6l4.1,4.2l0.5-0.5l-4.1-4.1c-0.1,0.1-0.2,0.2-0.3,0.3C51.9,75.5,51.8,75.6,51.7,75.6z"/>
	</g>
	<g>
		<path class="st1" d="M86.9,29.3c-0.1,0-0.3,0-0.4-0.1c-4-1.8-8.5-2.1-12.6-0.8c-0.5,0.2-1.1-0.1-1.2-0.6c-0.2-0.5,0.1-1.1,0.6-1.2
			c4.6-1.5,9.5-1.2,14,0.9c0.5,0.2,0.7,0.8,0.5,1.3C87.6,29.1,87.2,29.3,86.9,29.3z"/>
	</g>
	<g>
		<path class="st1" d="M79.1,64.7c-2.1,0-4-0.3-5.9-0.9c-0.5-0.2-0.8-0.7-0.6-1.2c0.2-0.5,0.7-0.8,1.2-0.6c1.7,0.5,3.6,0.8,5.5,0.8
			c9.7-0.1,17.5-8,17.4-17.7c0-0.5,0.4-1,1-1c0,0,0,0,0,0c0.5,0,1,0.4,1,1c0,5.2-1.9,10.1-5.6,13.8c-3.6,3.7-8.5,5.8-13.7,5.8
			C79.3,64.7,79.2,64.7,79.1,64.7z"/>
	</g>
	<g>
		<path class="st1" d="M73.6,52.8c-0.2,0-0.5-0.1-0.6-0.2c-0.4-0.4-0.5-1-0.1-1.4l5.6-6.6c0.3-0.4,1-0.5,1.4-0.1
			c0.4,0.4,0.5,1,0.1,1.4l-5.6,6.6C74.1,52.7,73.8,52.8,73.6,52.8z"/>
	</g>
	<g>
		<path class="st1" d="M79.2,46.2c-0.3,0-0.6-0.2-0.8-0.4c-0.2-0.3-0.2-0.6-0.1-0.9L86,27.9c0.2-0.5,0.8-0.7,1.3-0.5
			c7.1,3.2,11.4,9.8,11.4,17.5c0,0.3-0.1,0.5-0.3,0.7C98.2,45.9,98,46,97.7,46L79.2,46.2C79.2,46.2,79.2,46.2,79.2,46.2z M87.3,29.7
			l-6.6,14.5l16-0.2C96.3,37.7,93,32.6,87.3,29.7z"/>
	</g>
	<g>
		<path class="st1" d="M19.6,55.1c-0.5,0-1-0.4-1-1v-2c0-0.5,0.4-1,1-1c0.5,0,1,0.4,1,1v2C20.5,54.6,20.1,55.1,19.6,55.1z
			 M19.6,49.7c-0.5,0-1-0.4-1-1v-3.4c0-0.5,0.4-1,1-1c0.5,0,1,0.4,1,1v3.4C20.5,49.2,20.1,49.7,19.6,49.7z M19.6,42.8
			c-0.5,0-1-0.4-1-1v-3.4c0-0.5,0.4-1,1-1c0.5,0,1,0.4,1,1v3.4C20.5,42.4,20.1,42.8,19.6,42.8z M19.6,36c-0.5,0-1-0.4-1-1v-3.4
			c0-0.5,0.4-1,1-1c0.5,0,1,0.4,1,1V35C20.5,35.5,20.1,36,19.6,36z"/>
	</g>
</g>
</svg>
