<?xml version="1.0" encoding="utf-8"?>
<!-- Generator: Adobe Illustrator 16.0.0, SVG Export Plug-In . SVG Version: 6.00 Build 0)  -->
<!DOCTYPE svg PUBLIC "-//W3C//DTD SVG 1.1//EN" "http://www.w3.org/Graphics/SVG/1.1/DTD/svg11.dtd">
<svg version="1.1" id="Layer_1" xmlns="http://www.w3.org/2000/svg" xmlns:xlink="http://www.w3.org/1999/xlink" x="0px" y="0px"
	 width="262px" height="292px" viewBox="0 0 262 292" enable-background="new 0 0 262 292" xml:space="preserve">
<g>
	<g>
		<polygon fill="#FEEE0B" points="149.056,289.852 102.729,289.852 90.129,289.852 90.129,279.916 99.013,247.418 112.791,247.443 
			112.791,257.549 125.276,264.639 138.194,257.549 138.194,247.48 151.911,247.496 160.856,279.979 160.856,289.852 		"/>
	</g>
	<g>
		<path fill="#FEEE0B" d="M195.429,3.315v48.381H47.316l-11.304,11.32l-11.32-11.32H9.265V3.315H195.429z M141.544,27.207
			c0-3.349-2.713-6.051-6.051-6.051s-6.039,2.702-6.039,6.051c0,3.338,2.701,6.04,6.039,6.04S141.544,30.544,141.544,27.207z
			 M108.402,27.207c0-3.349-2.717-6.051-6.051-6.051c-3.338,0-6.043,2.702-6.043,6.051c0,3.338,2.706,6.04,6.043,6.04
			C105.685,33.246,108.402,30.544,108.402,27.207z M75.26,27.207c0-3.349-2.717-6.051-6.055-6.051s-6.04,2.702-6.04,6.051
			c0,3.338,2.702,6.04,6.04,6.04S75.26,30.544,75.26,27.207z"/>
	</g>
	<g>
		<path fill="#FEEE0B" d="M153.978,136.813c3.338,0,6.055,2.701,6.055,6.039c0,3.337-2.717,6.054-6.055,6.054
			c-3.334,0-6.039-2.717-6.039-6.054C147.938,139.514,150.644,136.813,153.978,136.813z"/>
	</g>
	<g>
		<path fill="#FEEE0B" d="M120.836,136.813c3.336,0,6.054,2.701,6.054,6.039c0,3.337-2.718,6.054-6.054,6.054
			c-3.338,0-6.041-2.717-6.041-6.054C114.795,139.514,117.498,136.813,120.836,136.813z"/>
	</g>
	<g>
		<path fill="#010101" d="M102.732,292.389c-0.042,0-0.085,0-0.127,0c-1.399-0.07-2.478-1.264-2.413-2.658l0.928-19.088
			c0.066-1.402,1.276-2.465,2.656-2.412c1.403,0.07,2.482,1.258,2.413,2.66l-0.925,19.078
			C105.195,291.334,104.077,292.389,102.732,292.389z"/>
	</g>
	<g>
		<path fill="#010101" d="M149.056,292.389c-1.346,0-2.467-1.055-2.535-2.42l-0.926-19.078c-0.07-1.402,1.01-2.59,2.414-2.66
			c0.037,0,0.08,0,0.121,0c1.346,0,2.467,1.057,2.537,2.412l0.926,19.088c0.064,1.395-1.016,2.588-2.414,2.658
			C149.138,292.389,149.095,292.389,149.056,292.389z"/>
	</g>
	<g>
		<path fill="#010101" d="M125.278,267.176c-0.436,0-0.866-0.109-1.256-0.334l-12.484-7.09c-0.793-0.455-1.283-1.293-1.283-2.203
			v-10.105c0-1.396,1.136-2.537,2.535-2.537c1.403,0,2.537,1.141,2.537,2.537v8.623l9.97,5.666l10.357-5.688v-8.564
			c0-1.395,1.137-2.537,2.539-2.537c1.4,0,2.537,1.143,2.537,2.537v10.068c0,0.924-0.506,1.771-1.314,2.219l-12.917,7.092
			C126.12,267.076,125.699,267.176,125.278,267.176z"/>
	</g>
	<g>
		<path fill="#010101" d="M160.856,292.389H90.129c-1.403,0-2.536-1.141-2.536-2.537v-9.936c0-0.229,0.027-0.453,0.089-0.67
			l8.88-32.498c0.304-1.102,1.307-1.865,2.451-1.865h0.004l17.694,0.023c1.134,0,2.128,0.746,2.44,1.834
			c0.849,2.953,3.233,4.934,5.937,4.934c2.701,0,5.086-1.973,5.939-4.91c0.313-1.08,1.307-1.826,2.436-1.826c0,0,0.004,0,0.008,0
			l18.445,0.023c1.141,0,2.139,0.762,2.443,1.857l8.945,32.49c0.059,0.215,0.09,0.447,0.09,0.67v9.873
			C163.394,291.248,162.255,292.389,160.856,292.389z M92.665,287.309h65.652v-6.984l-8.34-30.293l-14.762-0.014
			c-1.893,4.092-5.768,6.729-10.129,6.729c-4.367,0-8.245-2.652-10.133-6.762l-14.006-0.021l-8.283,30.293V287.309z"/>
	</g>
	<g>
		<path fill="#010101" d="M146.671,232.627h-9.174c-1.402,0-2.539-1.137-2.539-2.541c0-1.4,1.137-2.535,2.539-2.535h7.143
			c0.404-2.105,0.607-4.271,0.607-6.461c0-14.6-8.998-26.48-20.061-26.48c-11.053,0-20.045,11.881-20.045,26.48
			c0,2.189,0.204,4.355,0.609,6.461h7.739c1.403,0,2.54,1.135,2.54,2.535c0,1.404-1.136,2.541-2.54,2.541h-9.771
			c-1.16,0-2.17-0.787-2.459-1.912c-0.793-3.102-1.195-6.34-1.195-9.625c0-17.4,11.269-31.557,25.122-31.557
			c13.865,0,25.139,14.156,25.139,31.557c0,3.281-0.402,6.518-1.195,9.625C148.843,231.836,147.831,232.627,146.671,232.627z"/>
	</g>
	<g>
		<path fill="#010101" d="M125.491,242.076c-5.592,0-10.931-4.063-14.279-10.869c-2.039-4.139-3.165-8.994-3.165-13.67
			c0-1.596,0.131-3.176,0.389-4.701c0.12-0.695,0.521-1.311,1.114-1.697c0.586-0.389,1.314-0.508,1.996-0.338
			c4.371,1.074,9.035,1.621,13.871,1.621c4.902,0,9.613-0.559,14-1.66c0.678-0.174,1.402-0.051,1.996,0.332
			c0.59,0.381,0.998,0.994,1.117,1.684c0.275,1.523,0.408,3.121,0.408,4.76c0,4.676-1.123,9.531-3.166,13.67
			C136.427,238.014,131.089,242.076,125.491,242.076z M113.15,216.346c-0.019,0.398-0.027,0.795-0.027,1.191
			c0,3.912,0.935,7.969,2.643,11.426c2.474,5.035,6.113,8.039,9.725,8.039c3.615,0,7.254-3.004,9.729-8.033
			c1.707-3.463,2.645-7.52,2.645-11.432c0-0.408-0.008-0.818-0.031-1.217C129.966,217.877,121.074,217.891,113.15,216.346z"/>
	</g>
	<g>
		<path fill="#010101" d="M37.596,125.635c-9.361,0-15.906-10.775-16.827-21.195c-0.004-0.077-0.008-0.148-0.008-0.224
			c0-1.401,1.133-2.542,2.536-2.542c1.353,0,2.455,1.048,2.536,2.381c0.809,8.953,6.186,16.504,11.763,16.504
			c6.094,0,11.852-9.096,11.852-18.717c0-3.12-0.608-5.912-1.815-8.289c-0.016-0.027-0.027-0.051-0.039-0.078
			c-0.162-0.338-0.251-0.716-0.251-1.098c0-1.403,1.137-2.537,2.536-2.537c1.022,0,1.896,0.599,2.301,1.461
			c1.557,3.087,2.343,6.633,2.343,10.541C54.524,113.096,47.575,125.635,37.596,125.635z"/>
	</g>
	<g>
		<path fill="#010101" d="M19.3,115.317c-1.086,0-2.058-0.693-2.405-1.73c-1.233-3.665-1.884-7.597-1.884-11.362
			c0-13.262,8.263-22.89,19.645-22.89c7.677,0,14.164,4.386,17.421,11.752c0.231,0.385,0.366,0.835,0.366,1.318
			c0,1.398-1.132,2.535-2.536,2.535c-0.007,0-0.015,0-0.027,0c-0.1,0-0.204-0.003-0.304-0.02c-1.808-0.219-3.677-0.238-5.535-0.054
			c-7.582,0.721-14.38,4.661-18.662,10.8c-1.68,2.4-2.899,5.011-3.623,7.763c-0.286,1.083-1.252,1.849-2.371,1.888
			C19.355,115.317,19.328,115.317,19.3,115.317z M34.656,84.411c-8.579,0-14.569,7.322-14.569,17.813
			c0,0.71,0.027,1.423,0.081,2.144c0.332-0.548,0.683-1.078,1.052-1.607c5.134-7.361,13.274-12.083,22.332-12.946
			c0.604-0.062,1.217-0.103,1.831-0.127C42.75,86.326,38.949,84.411,34.656,84.411z"/>
	</g>
	<g>
		<path fill="#010101" d="M15.523,175.998c-0.042,0-0.084-0.004-0.127-0.004c-1.399-0.07-2.479-1.258-2.413-2.66l0.929-19.082
			c0.066-1.398,1.253-2.467,2.656-2.412c1.399,0.068,2.478,1.256,2.413,2.658l-0.926,19.082
			C17.99,174.938,16.865,175.998,15.523,175.998z"/>
	</g>
	<g>
		<path fill="#010101" d="M61.855,175.998c-1.345,0-2.467-1.061-2.533-2.418l-0.924-19.082c-0.066-1.402,1.013-2.59,2.412-2.658
			c1.372-0.055,2.59,1.008,2.659,2.412l0.925,19.082c0.066,1.402-1.014,2.59-2.413,2.66
			C61.939,175.994,61.897,175.998,61.855,175.998z"/>
	</g>
	<g>
		<path fill="#010101" d="M73.66,175.998H2.932c-1.399,0-2.536-1.139-2.536-2.541v-9.936c0-0.225,0.027-0.451,0.089-0.668
			l8.88-32.498c0.304-1.102,1.306-1.865,2.451-1.865l0,0l15.316,0.023c1.106,0.004,2.082,0.717,2.413,1.77
			c1.615,5.064,4.884,8.352,8.344,8.405c0.066-0.003,0.135-0.007,0.201-0.012c3.454-0.054,6.718-3.341,8.321-8.372
			c0.335-1.051,1.311-1.764,2.417-1.764h0.003l15.887,0.022c1.141,0.005,2.139,0.769,2.44,1.866l8.949,32.482
			c0.058,0.219,0.089,0.447,0.089,0.674v9.871C76.196,174.859,75.063,175.998,73.66,175.998z M5.472,170.922h65.652v-6.992
			l-8.344-30.293l-12.171-0.02c-2.494,6.152-7.069,9.97-12.271,10.133c-0.163,0.017-0.286,0.017-0.359,0.017
			c-5.265,0-10.079-3.936-12.63-10.181l-11.597-0.019l-8.279,30.296V170.922z"/>
	</g>
	<g>
		<path fill="#010101" d="M38.132,175.998c-1.403,0-2.54-1.139-2.54-2.541v-32.24c0-1.404,1.136-2.54,2.54-2.54
			c1.403,0,2.536,1.136,2.536,2.54v32.24C40.668,174.859,39.535,175.998,38.132,175.998z"/>
	</g>
	<g>
		<path fill="#010101" d="M200.94,221.928c-0.037,0-0.084,0-0.123,0c-1.402-0.068-2.48-1.26-2.412-2.66l0.924-19.082
			c0.07-1.402,1.273-2.479,2.66-2.414c1.402,0.066,2.482,1.258,2.412,2.656l-0.924,19.086
			C203.407,220.871,202.29,221.928,200.94,221.928z"/>
	</g>
	<g>
		<path fill="#010101" d="M247.261,221.928c-1.342,0-2.467-1.057-2.527-2.414l-0.928-19.086c-0.068-1.398,1.012-2.59,2.414-2.656
			c1.357-0.068,2.59,1.012,2.658,2.414l0.928,19.082c0.061,1.4-1.02,2.592-2.414,2.66
			C247.345,221.928,247.308,221.928,247.261,221.928z"/>
	</g>
	<g>
		<path fill="#010101" d="M259.069,221.928h-70.732c-1.395,0-2.535-1.135-2.535-2.535v-9.938c0-0.223,0.031-0.451,0.094-0.67
			l8.879-32.494c0.301-1.104,1.303-1.871,2.451-1.871l0,0l52.902,0.078c1.133,0.004,2.135,0.766,2.443,1.865l8.941,32.482
			c0.063,0.219,0.092,0.443,0.092,0.674v9.873C261.604,220.793,260.466,221.928,259.069,221.928z M190.882,216.855h65.643v-6.992
			l-8.34-30.293l-49.023-0.07l-8.279,30.297V216.855z"/>
	</g>
	<g>
		<path fill="#010101" d="M223.056,171.619c-9.936,0-16.766-11.84-17.389-22.811c-0.039-0.541-0.055-1.135-0.055-1.729
			c0-11.759,7.33-20.292,17.443-20.292c9.012,0,15.902,6.697,17.205,16.691c0.023,0.093,0.039,0.183,0.047,0.275
			c0.131,1.117,0.191,2.203,0.191,3.326C240.499,158.684,233.339,171.619,223.056,171.619z M223.056,131.863
			c-7.283,0-12.373,6.259-12.373,15.217c0,0.469,0.01,0.943,0.047,1.4c0.547,9.641,6.307,18.063,12.326,18.063
			c6.359,0,12.371-9.463,12.371-19.463c0-0.846-0.045-1.662-0.131-2.504c-0.021-0.076-0.029-0.148-0.037-0.227
			C234.343,136.765,229.554,131.863,223.056,131.863z"/>
	</g>
	<g>
		<path fill="#010101" d="M228.298,221.928c-1.326,0-2.436-1.018-2.535-2.355l-2.305-32.305c-0.102-1.4,0.947-2.613,2.35-2.715
			c1.412-0.066,2.613,0.957,2.713,2.352l2.307,32.307c0.1,1.398-0.949,2.611-2.352,2.713
			C228.413,221.928,228.353,221.928,228.298,221.928z"/>
	</g>
	<g>
		<path fill="#010101" d="M218.222,221.928c-0.061,0-0.121,0-0.176-0.004c-1.402-0.102-2.451-1.314-2.359-2.713l2.297-32.307
			c0.1-1.395,1.35-2.42,2.713-2.352c1.396,0.102,2.453,1.314,2.354,2.715l-2.299,32.301
			C220.657,220.906,219.542,221.928,218.222,221.928z"/>
	</g>
	<g>
		<path fill="#010101" d="M208.179,151.211c-0.379,0-0.764-0.084-1.125-0.266c-1.248-0.625-1.764-2.137-1.141-3.391
			c0.076-0.156,0.184-0.326,0.293-0.463l7.639-9.683c0.609-0.766,1.604-1.121,2.566-0.896l21.885,5.048
			c1.156,0.24,2.027,1.261,2.027,2.486c0,1.401-1.133,2.536-2.537,2.536h-0.006c-0.195,0-0.387-0.02-0.58-0.063l-20.365-4.702
			l-6.613,8.379C209.737,150.844,208.966,151.211,208.179,151.211z"/>
	</g>
	<g>
		<path fill="#010101" d="M227.927,189.627h-9.742c-1.287,0-2.375-0.973-2.521-2.252l-1.156-10.102
			c-0.162-1.393,0.84-2.648,2.236-2.811c1.387-0.154,2.645,0.84,2.805,2.236l0.902,7.85h5.219l0.91-7.832
			c0.16-1.391,1.418-2.396,2.813-2.227c1.389,0.162,2.391,1.418,2.229,2.814l-1.172,10.072
			C230.302,188.656,229.214,189.627,227.927,189.627z"/>
	</g>
	<g>
		<path fill="#010101" d="M125.468,179.879h-0.004c-0.67,0-1.318-0.27-1.791-0.744l-10.92-10.932h-20.57
			c-1.399,0-2.535-1.137-2.535-2.539v-45.919c0-1.398,1.136-2.535,2.535-2.535h91.107c1.4,0,2.535,1.137,2.535,2.535v45.919
			c0,1.402-1.135,2.539-2.535,2.539h-45.1l-10.932,10.932C126.786,179.609,126.138,179.879,125.468,179.879z M94.724,163.127h19.082
			c0.674,0,1.321,0.268,1.796,0.746l9.867,9.877l9.879-9.877c0.475-0.479,1.121-0.746,1.793-0.746h43.613v-40.84H94.724V163.127z"/>
	</g>
	<g>
		<path fill="#010101" d="M36.012,65.552c-0.675,0-1.318-0.266-1.796-0.74L23.641,54.236H9.265c-1.399,0-2.536-1.137-2.536-2.54
			V3.315c0-1.399,1.137-2.536,2.536-2.536h186.164c1.404,0,2.545,1.137,2.545,2.536v48.381c0,1.403-1.141,2.54-2.545,2.54H48.369
			l-10.56,10.572C37.331,65.286,36.688,65.552,36.012,65.552z M11.8,49.16h12.892c0.675,0,1.319,0.266,1.797,0.744l9.523,9.524
			l9.509-9.524c0.477-0.478,1.122-0.744,1.795-0.744h145.577V5.855H11.8V49.16z"/>
	</g>
	<g>
		<path fill="#010101" d="M222.94,116.03c-0.648,0-1.295-0.246-1.789-0.744l-11.469-11.451H71.136c-1.403,0-2.541-1.137-2.541-2.538
			V71.303c0-1.403,1.137-2.54,2.541-2.54h175.016c1.402,0,2.535,1.137,2.535,2.54v29.994c0,1.401-1.133,2.538-2.535,2.538h-9.953
			l-11.461,11.451C224.243,115.784,223.589,116.03,222.94,116.03z M73.671,98.759h137.068c0.67,0,1.316,0.267,1.787,0.745
			l10.414,10.402l10.414-10.402c0.477-0.479,1.117-0.745,1.795-0.745h8.465v-24.92H73.671V98.759z"/>
	</g>
	<g>
		<path fill="#010101" d="M69.205,35.786c-4.729,0-8.576-3.847-8.576-8.58c0-4.737,3.846-8.59,8.576-8.59
			c4.737,0,8.591,3.854,8.591,8.59C77.796,31.939,73.941,35.786,69.205,35.786z M69.205,23.692c-1.931,0-3.5,1.58-3.5,3.514
			c0,1.932,1.569,3.504,3.5,3.504c1.939,0,3.515-1.573,3.515-3.504C72.72,25.272,71.144,23.692,69.205,23.692z"/>
	</g>
	<g>
		<path fill="#010101" d="M102.347,35.786c-4.729,0-8.576-3.847-8.576-8.58c0-4.737,3.847-8.59,8.576-8.59
			c4.741,0,8.591,3.854,8.591,8.59C110.938,31.939,107.087,35.786,102.347,35.786z M102.347,23.692c-1.927,0-3.5,1.58-3.5,3.514
			c0,1.932,1.573,3.504,3.5,3.504c1.939,0,3.515-1.573,3.515-3.504C105.862,25.272,104.286,23.692,102.347,23.692z"/>
	</g>
	<g>
		<path fill="#010101" d="M135.493,35.786c-4.732,0-8.58-3.847-8.58-8.58c0-4.737,3.848-8.59,8.58-8.59
			c4.736,0,8.592,3.854,8.592,8.59C144.085,31.939,140.229,35.786,135.493,35.786z M135.493,23.692c-1.93,0-3.504,1.58-3.504,3.514
			c0,1.932,1.574,3.504,3.504,3.504c1.936,0,3.516-1.573,3.516-3.504C139.009,25.272,137.429,23.692,135.493,23.692z"/>
	</g>
	<g>
		<path fill="#010101" d="M120.836,151.441c-4.729,0-8.576-3.854-8.576-8.589c0-4.73,3.846-8.576,8.576-8.576
			c4.737,0,8.591,3.846,8.591,8.576C129.427,147.588,125.573,151.441,120.836,151.441z M120.836,139.351
			c-1.932,0-3.5,1.569-3.5,3.501c0,1.939,1.569,3.515,3.5,3.515c1.937,0,3.514-1.576,3.514-3.515
			C124.35,140.92,122.773,139.351,120.836,139.351z"/>
	</g>
	<g>
		<path fill="#010101" d="M153.978,151.441c-4.729,0-8.576-3.854-8.576-8.589c0-4.73,3.848-8.576,8.576-8.576
			c4.736,0,8.592,3.846,8.592,8.576C162.569,147.588,158.714,151.441,153.978,151.441z M153.978,139.351
			c-1.928,0-3.5,1.569-3.5,3.501c0,1.939,1.572,3.515,3.5,3.515c1.938,0,3.516-1.576,3.516-3.515
			C157.493,140.92,155.915,139.351,153.978,139.351z"/>
	</g>
	<g>
		<path fill="#010101" d="M230.278,88.824h-19.848c-1.404,0-2.537-1.138-2.537-2.537c0-1.401,1.133-2.539,2.537-2.539h19.848
			c1.395,0,2.537,1.138,2.537,2.539C232.815,87.686,231.673,88.824,230.278,88.824z"/>
	</g>
	<g>
		<path fill="#010101" d="M192.284,88.824h-55.002c-1.402,0-2.541-1.138-2.541-2.537c0-1.401,1.139-2.539,2.541-2.539h55.002
			c1.402,0,2.537,1.138,2.537,2.539C194.821,87.686,193.687,88.824,192.284,88.824z"/>
	</g>
	<g>
		<path fill="#010101" d="M121.406,88.824H84.544c-1.399,0-2.536-1.138-2.536-2.537c0-1.401,1.137-2.539,2.536-2.539h36.861
			c1.403,0,2.54,1.138,2.54,2.539C123.945,87.686,122.809,88.824,121.406,88.824z"/>
	</g>
	<g>
		<path fill="#010101" d="M204.024,122.83h-5.08c-1.396,0-2.537-1.137-2.537-2.536c0-1.404,1.141-2.541,2.537-2.541h5.08
			c1.404,0,2.535,1.137,2.535,2.541C206.56,121.693,205.429,122.83,204.024,122.83z"/>
	</g>
	<g>
		<path fill="#010101" d="M159.03,187.109h-5.076c-1.402,0-2.539-1.135-2.539-2.535s1.137-2.537,2.539-2.537h5.076
			c1.398,0,2.537,1.137,2.537,2.537S160.429,187.109,159.03,187.109z"/>
	</g>
	<g>
		<path fill="#010101" d="M170.019,187.109h-5.074c-1.404,0-2.541-1.135-2.541-2.535s1.137-2.537,2.541-2.537h5.074
			c1.398,0,2.539,1.137,2.539,2.537S171.417,187.109,170.019,187.109z"/>
	</g>
</g>
</svg>
