<?xml version="1.0" encoding="utf-8"?>
<!-- Generator: Adobe Illustrator 16.0.0, SVG Export Plug-In . SVG Version: 6.00 Build 0)  -->
<!DOCTYPE svg PUBLIC "-//W3C//DTD SVG 1.1//EN" "http://www.w3.org/Graphics/SVG/1.1/DTD/svg11.dtd">
<svg version="1.1" id="Layer_1" xmlns="http://www.w3.org/2000/svg" xmlns:xlink="http://www.w3.org/1999/xlink" x="0px" y="0px"
	 width="105px" height="105px" viewBox="0 0 105 105" style="enable-background:new 0 0 105 105;" xml:space="preserve">
<style type="text/css">
<![CDATA[
	.st0{fill:#F5C416;}
	.st1{fill:#F7C450;}
	.st2{fill:#FFFFFF;}
	.st3{fill:none;}
]]>
</style>
<g>
	<g>
		<g>
			<g>
				<path class="st3" d="M100.6,69.7V14.6c0-1.4-1.2-2.6-2.6-2.6H8.8c-1.4,0-2.6,1.2-2.6,2.6v55.2H100.6z"/>
				<path class="st2" d="M102.6,71.7H4.2V14.6C4.2,12,6.3,10,8.8,10H98c2.5,0,4.6,2.1,4.6,4.6V71.7z M8.2,67.7h90.3V14.6
					c0-0.3-0.3-0.6-0.6-0.6H8.8c-0.3,0-0.6,0.3-0.6,0.6V67.7z"/>
			</g>
			<g>
				<path class="st2" d="M6.2,69.7v8c0,1.5,1.6,3.2,3.1,3.2h88.8c1.5,0,2.4-1.6,2.4-3.1v-8.1H6.2z"/>
				<path class="st2" d="M98.1,82.9H9.3c-2.6,0-5.1-2.5-5.1-5.2v-10h98.4v10.1C102.6,80.3,100.9,82.9,98.1,82.9z M8.2,71.7v6
					c0,0.5,0.7,1.2,1.1,1.2h88.8c0.1,0,0.4-0.5,0.4-1.1v-6.1H8.2z"/>
			</g>
			<g>
				<path class="st2" d="M42.9,80.9c-0.2,2,0.2,6.4-0.2,8.5c-0.4,2-0.7,2-1.7,2.6c-0.6,0.3-1.6,0.8-2.4,1.1l0,0"/>
				<path class="st2" d="M39.3,95l-1.6-3.7c1-0.4,1.8-0.8,2.3-1.1l0.1-0.1c0.1-0.1,0.2-0.1,0.3-0.2c0-0.1,0.1-0.4,0.2-1
					c0.2-1.1,0.2-3.2,0.2-5c0-1.3,0-2.5,0-3.3l4,0.3c-0.1,0.7,0,1.8,0,3c0,2.1,0.1,4.3-0.2,5.8c-0.5,2.4-1.1,3.1-2.6,3.9l-0.1,0.1
					C41.2,94.2,40.1,94.7,39.3,95z"/>
			</g>
			<g>
				<path class="st2" d="M68.2,93.2c-0.8-0.4-1.8-0.8-2.4-1.1c-1-0.6-1.2-0.6-1.6-2.6C63.6,87.3,64,83,63.8,81"/>
				<path class="st2" d="M67.4,95.1c-0.8-0.4-1.9-0.8-2.6-1.2l-0.1-0.1c-1.6-0.9-2.1-1.6-2.5-3.9c-0.3-1.5-0.3-3.6-0.2-5.7
					c0-1.2,0-2.3,0-2.9l4-0.3c0.1,0.9,0.1,2.1,0,3.3c0,1.7-0.1,3.8,0.2,4.9c0.1,0.6,0.2,0.9,0.2,1c0.1,0.1,0.2,0.1,0.3,0.2
					c0.5,0.3,1.3,0.7,2.4,1.1L67.4,95.1z"/>
			</g>
			<g>
				<line class="st2" x1="35.9" y1="93.1" x2="70.9" y2="93.1"/>
				<rect x="35.9" y="91.1" class="st2" width="34.9" height="4"/>
			</g>
		</g>
	</g>
	<g>
		<rect x="16.9" y="46.3" class="st1" width="11.9" height="14.8"/>
		<g>
			<rect x="36.4" y="26.4" class="st0" width="11.9" height="34.7"/>
			<path class="st2" d="M50.3,63.1H34.4V24.4h15.9V63.1z M38.4,59.1h7.9V28.4h-7.9V59.1z"/>
		</g>
		<rect x="55.9" y="35.8" class="st1" width="11.9" height="25.3"/>
		<rect x="75.5" y="18.4" class="st0" width="11.9" height="42.7"/>
		<path class="st0" d="M53,5.9H31.1c-0.9,0-1.6,0.7-1.6,1.6v9.1c0,0.9,0.7,1.6,1.6,1.6h8.8l0.6,1l1.6,2.7l1.6-2.7l0.6-1H53
			c0.9,0,1.6-0.7,1.6-1.6V7.5C54.6,6.6,53.8,5.9,53,5.9z"/>
		<g>
			<rect x="36.2" y="10.1" class="st2" width="11.8" height="4"/>
		</g>
		<g>
			<line class="st2" x1="13.1" y1="61.1" x2="93.7" y2="61.1"/>
			<rect x="13.1" y="59.1" class="st2" width="80.7" height="4"/>
		</g>
	</g>
</g>
</svg>
