<?xml version="1.0" encoding="utf-8"?>
<!-- Generator: Adobe Illustrator 16.0.0, SVG Export Plug-In . SVG Version: 6.00 Build 0)  -->
<!DOCTYPE svg PUBLIC "-//W3C//DTD SVG 1.1//EN" "http://www.w3.org/Graphics/SVG/1.1/DTD/svg11.dtd">
<svg version="1.1" id="Layer_1" xmlns="http://www.w3.org/2000/svg" xmlns:xlink="http://www.w3.org/1999/xlink" x="0px" y="0px"
	 width="105px" height="105px" viewBox="0 0 105 105" style="enable-background:new 0 0 105 105;" xml:space="preserve">
<style type="text/css">
<![CDATA[
	.st0{fill:#F5C416;}
	.st1{fill:#414042;}
]]>
</style>
<g>
	<path class="st1" d="M96.6,12.3H10.4c-1.6,0-2.9,1.3-2.9,2.9v76c0,1.6,1.3,2.9,2.9,2.9h86.2c1.6,0,2.9-1.3,2.9-2.9v-76
		C99.6,13.6,98.3,12.3,96.6,12.3z M93.7,85.5H33.1c-0.7,1.7-2.4,3-4.4,3c-2,0-3.7-1.2-4.4-3h-11V82h11c0.7-1.7,2.4-3,4.4-3
		c2,0,3.7,1.2,4.4,3h60.6V85.5z M93.7,73.6H13.4V18.1h80.3V73.6z"/>
	<path class="st0" d="M66.3,44.5c1.5,0.9,1.5,2.2,0,3.1L44.4,60.2c-1.5,0.8-2.7,0.2-2.7-1.5V33.4c0-1.7,1.2-2.4,2.7-1.6L66.3,44.5z"
		/>
</g>
</svg>
