<?xml version="1.0" encoding="utf-8"?>
<!-- Generator: Adobe Illustrator 16.0.0, SVG Export Plug-In . SVG Version: 6.00 Build 0)  -->
<!DOCTYPE svg PUBLIC "-//W3C//DTD SVG 1.1//EN" "http://www.w3.org/Graphics/SVG/1.1/DTD/svg11.dtd">
<svg version="1.1" id="Layer_1" xmlns="http://www.w3.org/2000/svg" xmlns:xlink="http://www.w3.org/1999/xlink" x="0px" y="0px"
	 width="105px" height="105px" viewBox="0 0 105 105" style="enable-background:new 0 0 105 105;" xml:space="preserve">
<style type="text/css">
<![CDATA[
	.st0{fill:#F5C416;}
	.st1{fill:#292E33;}
	.st2{fill:#F7C450;}
	.st3{fill:#FFFFFF;}
]]>
</style>
<g>
	<g>
		<rect x="11.3" y="27.4" class="st2" width="82.4" height="44.6"/>
		<g>
			<polyline class="st3" points="87.5,77.7 99.4,77.7 99.4,21.7 5.6,21.7 5.6,77.7 17.5,77.7 			"/>
			<polygon class="st1" points="101.3,79.6 87.5,79.6 87.5,75.7 97.5,75.7 97.5,23.6 7.5,23.6 7.5,75.7 17.5,75.7 17.5,79.6 
				3.7,79.6 3.7,19.8 101.3,19.8 			"/>
		</g>
		<g>
			<rect x="5.6" y="10.7" class="st3" width="93.8" height="11"/>
			<path class="st1" d="M101.3,23.6H3.7V8.8h97.6V23.6z M7.5,19.8h90v-7.1h-90V19.8z"/>
		</g>
		<g>
			<line class="st3" x1="9.9" y1="16.1" x2="13.4" y2="16.1"/>
			<rect x="9.9" y="14.2" class="st1" width="3.6" height="3.8"/>
		</g>
		<g>
			<line class="st3" x1="16" y1="16.1" x2="19.6" y2="16.1"/>
			<rect x="16" y="14.2" class="st1" width="3.6" height="3.8"/>
		</g>
		<g>
			<line class="st3" x1="22.2" y1="16.1" x2="25.8" y2="16.1"/>
			<rect x="22.2" y="14.2" class="st1" width="3.6" height="3.8"/>
		</g>
	</g>
	<g>
		<circle class="st3" cx="52.5" cy="66.6" r="32.4"/>
		<circle class="st0" cx="52.5" cy="66.6" r="26.2"/>
		<g>
			<g>
				<path class="st1" d="M52.5,100.5c-18.7,0-33.9-15.2-33.9-33.9c0-18.7,15.2-33.9,33.9-33.9c18.7,0,33.9,15.2,33.9,33.9
					C86.4,85.3,71.2,100.5,52.5,100.5z M52.5,36.5c-16.6,0-30.1,13.5-30.1,30.1c0,16.6,13.5,30.1,30.1,30.1
					c16.6,0,30.1-13.5,30.1-30.1C82.6,50,69.1,36.5,52.5,36.5z"/>
			</g>
			<g>
				<path class="st1" d="M52.5,100.5c-11.5,0-20.4-14.9-20.4-33.9c0-19,9-33.9,20.4-33.9c11.4,0,20.4,14.9,20.4,33.9
					C72.9,85.6,63.9,100.5,52.5,100.5z M52.5,36.5c-9,0-16.6,13.8-16.6,30.1c0,16.3,7.6,30.1,16.6,30.1c9,0,16.6-13.8,16.6-30.1
					C69.1,50.2,61.5,36.5,52.5,36.5z"/>
			</g>
			<g>
				<path class="st1" d="M52.5,100.5c-1.1,0-1.9-0.9-1.9-1.9v-64c0-1.1,0.9-1.9,1.9-1.9c18.7,0,33.9,15.2,33.9,33.9
					C86.4,85.3,71.2,100.5,52.5,100.5z M54.4,36.5v60.1c15.7-1,28.2-14.1,28.2-30C82.6,50.6,70.1,37.5,54.4,36.5z"/>
			</g>
			<g>
				<path class="st1" d="M82.4,79.8H22.6c-0.8,0-1.5-0.5-1.8-1.2c-1.5-3.9-2.2-7.9-2.2-12c0-4.1,0.7-8.1,2.2-12
					c0.3-0.7,1-1.2,1.8-1.2h59.9c0.8,0,1.5,0.5,1.8,1.2c1.5,3.9,2.2,7.9,2.2,12s-0.7,8.1-2.2,12C83.9,79.3,83.2,79.8,82.4,79.8z
					 M23.9,75.9h57.2c1-3.1,1.5-6.2,1.5-9.4s-0.5-6.3-1.5-9.4H23.9c-1,3.1-1.5,6.2-1.5,9.4C22.4,69.7,22.9,72.9,23.9,75.9z"/>
			</g>
		</g>
	</g>
</g>
</svg>
