<svg id="Layer_1" data-name="Layer 1" xmlns="http://www.w3.org/2000/svg" viewBox="0 0 50 50"><title>video-advertising</title><rect x="14.3" y="17.03" width="35.7" height="24.99" rx="1.78" ry="1.78" style="fill:#212121"/><polygon points="45.05 47.94 45.05 42.02 39.13 42.02 45.05 47.94" style="fill:#212121"/><path d="M5.22,11.68H37.34a1.78,1.78,0,0,1,1.78,1.78V34.88a1.79,1.79,0,0,1-1.79,1.79H5.22a1.79,1.79,0,0,1-1.79-1.79V13.46A1.78,1.78,0,0,1,5.22,11.68Z" style="fill:#eee"/><polygon points="8.38 42.58 8.38 36.66 14.3 36.66 8.38 42.58" style="fill:#eee"/><rect x="23.18" y="21.16" width="20.41" height="12.75" style="fill:#f44336"/><polygon points="32.04 25.58 35.44 27.54 32.04 29.5 32.04 25.58" style="fill:#fff"/><polygon points="11.17 17.59 7.54 19.68 11.17 21.78 11.17 23.87 0 23.87 0 15.5 11.17 15.5 11.17 17.59" style="fill:#212121"/><polygon points="14.79 15.5 14.79 23.87 11.17 21.78 11.17 17.59 14.79 15.5" style="fill:#212121"/><circle cx="43.68" cy="7.24" r="5.18" style="fill:#f44336"/><polygon points="42.64 5.43 45.77 7.24 42.64 9.05 42.64 5.43" style="fill:#fff"/></svg>