<svg xmlns="http://www.w3.org/2000/svg" xmlns:xlink="http://www.w3.org/1999/xlink" preserveAspectRatio="xMidYMid" width="85" height="74" viewBox="0 0 85 74">
  <defs>
    <style>
      .cls-1 {
        fill: #a5d3f5;
      }

      .cls-1, .cls-3 {
        fill-rule: evenodd;
      }

      .cls-2 {
        fill: #ff9f17;
      }

      .cls-3 {
        fill: #0f7fd2;
      }
    </style>
  </defs>
  <g>
    <path d="M68.500,46.000 L17.500,46.000 C11.701,46.000 7.000,41.299 7.000,35.500 C7.000,29.701 11.701,25.000 17.500,25.000 L23.025,25.000 C23.293,14.464 31.899,6.000 42.500,6.000 C53.101,6.000 61.707,14.464 61.975,25.000 L68.500,25.000 C74.299,25.000 79.000,29.701 79.000,35.500 C79.000,41.299 74.299,46.000 68.500,46.000 ZM26.959,20.000 L29.087,20.000 C30.822,15.773 34.495,12.551 39.000,11.432 L39.000,9.384 C33.389,10.601 28.847,14.668 26.959,20.000 Z" class="cls-1"/>
    <circle cx="43" cy="64" r="6" class="cls-2"/>
    <path d="M68.500,52.000 L61.000,52.000 L61.000,50.000 L68.500,50.000 C76.508,50.000 83.000,43.508 83.000,35.500 C83.000,27.492 76.508,21.000 68.500,21.000 L65.559,21.000 C63.458,10.176 53.938,2.000 42.500,2.000 C31.062,2.000 21.542,10.176 19.441,21.000 L16.500,21.000 C8.492,21.000 2.000,27.492 2.000,35.500 C2.000,43.508 8.492,50.000 16.500,50.000 L25.000,50.000 L25.000,52.000 L16.500,52.000 C7.387,52.000 0.000,44.613 0.000,35.500 C0.000,26.387 7.387,19.000 16.500,19.000 L17.868,19.000 C20.746,8.071 30.667,-0.000 42.500,-0.000 C54.333,-0.000 64.254,8.071 67.132,19.000 L68.500,19.000 C77.613,19.000 85.000,26.387 85.000,35.500 C85.000,44.613 77.613,52.000 68.500,52.000 ZM35.500,51.000 C34.672,51.000 34.000,50.328 34.000,49.500 L34.000,41.500 C34.000,40.672 34.672,40.000 35.500,40.000 C36.328,40.000 37.000,40.672 37.000,41.500 L37.000,49.500 C37.000,50.328 36.328,51.000 35.500,51.000 ZM41.000,45.500 L41.000,37.500 C41.000,36.672 41.672,36.000 42.500,36.000 C43.328,36.000 44.000,36.672 44.000,37.500 L44.000,45.500 C44.000,46.328 43.328,47.000 42.500,47.000 C41.672,47.000 41.000,46.328 41.000,45.500 ZM48.000,49.500 L48.000,41.500 C48.000,40.672 48.672,40.000 49.500,40.000 C50.328,40.000 51.000,40.672 51.000,41.500 L51.000,49.500 C51.000,50.328 50.328,51.000 49.500,51.000 C48.672,51.000 48.000,50.328 48.000,49.500 ZM43.000,54.000 C48.523,54.000 53.000,58.477 53.000,64.000 C53.000,69.523 48.523,74.000 43.000,74.000 C37.477,74.000 33.000,69.523 33.000,64.000 C33.000,58.477 37.477,54.000 43.000,54.000 ZM43.000,72.000 C47.418,72.000 51.000,68.418 51.000,64.000 C51.000,59.582 47.418,56.000 43.000,56.000 C38.582,56.000 35.000,59.582 35.000,64.000 C35.000,68.418 38.582,72.000 43.000,72.000 Z" class="cls-3"/>
  </g>
</svg>
