<svg xmlns="http://www.w3.org/2000/svg" xmlns:xlink="http://www.w3.org/1999/xlink" preserveAspectRatio="xMidYMid" width="64" height="83" viewBox="0 0 64 83">
  <defs>
    <style>
      .cls-1 {
        fill: #0f7fd2;
        fill-rule: evenodd;
      }

      .cls-2 {
        fill: #ff9f17;
      }
    </style>
  </defs>
  <g>
    <path d="M61.000,73.000 L57.000,73.000 L54.000,73.000 L52.000,73.000 L50.000,73.000 L13.000,73.000 C11.343,73.000 10.000,71.657 10.000,70.000 L10.000,14.000 L10.000,12.000 L10.000,10.000 L10.000,8.000 L10.000,3.000 C10.000,1.343 11.343,-0.000 13.000,-0.000 L61.000,-0.000 C62.657,-0.000 64.000,1.343 64.000,3.000 L64.000,70.000 C64.000,71.657 62.657,73.000 61.000,73.000 ZM62.000,4.000 C62.000,2.895 61.105,2.000 60.000,2.000 L14.000,2.000 C12.895,2.000 12.000,2.895 12.000,4.000 L12.000,69.000 C12.000,70.105 12.895,71.000 14.000,71.000 L60.000,71.000 C61.105,71.000 62.000,70.105 62.000,69.000 L62.000,4.000 ZM39.000,62.000 L56.000,62.000 L56.000,64.000 L39.000,64.000 L39.000,62.000 ZM39.000,57.000 L56.000,57.000 L56.000,59.000 L39.000,59.000 L39.000,57.000 ZM39.000,52.000 L56.000,52.000 L56.000,54.000 L39.000,54.000 L39.000,52.000 ZM54.000,21.000 L56.000,21.000 L56.000,35.000 L54.000,35.000 L54.000,21.000 ZM50.000,18.000 L52.000,18.000 L52.000,35.000 L50.000,35.000 L50.000,18.000 ZM46.000,29.000 L48.000,29.000 L48.000,35.000 L46.000,35.000 L46.000,29.000 ZM42.000,28.000 L44.000,28.000 L44.000,35.000 L42.000,35.000 L42.000,28.000 ZM38.000,22.000 L40.000,22.000 L40.000,35.000 L38.000,35.000 L38.000,22.000 ZM34.000,26.000 L36.000,26.000 L36.000,35.000 L34.000,35.000 L34.000,26.000 ZM33.000,10.000 C31.895,10.000 31.000,9.105 31.000,8.000 C31.000,6.895 31.895,6.000 33.000,6.000 C34.105,6.000 35.000,6.895 35.000,8.000 C35.000,9.105 34.105,10.000 33.000,10.000 ZM32.000,35.000 L30.000,35.000 L30.000,23.000 L32.000,23.000 L32.000,35.000 ZM26.000,28.000 L28.000,28.000 L28.000,35.000 L26.000,35.000 L26.000,28.000 ZM26.000,10.000 C24.895,10.000 24.000,9.105 24.000,8.000 C24.000,6.895 24.895,6.000 26.000,6.000 C27.105,6.000 28.000,6.895 28.000,8.000 C28.000,9.105 27.105,10.000 26.000,10.000 ZM24.000,35.000 L22.000,35.000 L22.000,27.000 L24.000,27.000 L24.000,35.000 ZM19.000,10.000 C17.895,10.000 17.000,9.105 17.000,8.000 C17.000,6.895 17.895,6.000 19.000,6.000 C20.105,6.000 21.000,6.895 21.000,8.000 C21.000,9.105 20.105,10.000 19.000,10.000 ZM20.000,35.000 L18.000,35.000 L18.000,32.000 L20.000,32.000 L20.000,35.000 ZM35.000,54.000 L18.000,54.000 L18.000,52.000 L35.000,52.000 L35.000,54.000 ZM35.000,59.000 L18.000,59.000 L18.000,57.000 L35.000,57.000 L35.000,59.000 ZM35.000,64.000 L18.000,64.000 L18.000,62.000 L35.000,62.000 L35.000,64.000 ZM2.000,14.000 L2.000,79.000 C2.000,80.105 2.895,81.000 4.000,81.000 L50.000,81.000 C51.105,81.000 52.000,80.105 52.000,79.000 L52.000,75.000 L54.000,75.000 L54.000,80.000 C54.000,81.657 52.657,83.000 51.000,83.000 L3.000,83.000 C1.343,83.000 -0.000,81.657 -0.000,80.000 L-0.000,13.000 C-0.000,11.343 1.343,10.000 3.000,10.000 L8.000,10.000 L8.000,12.000 L4.000,12.000 C2.895,12.000 2.000,12.895 2.000,14.000 Z" class="cls-1"/>
    <rect x="18" y="37" width="38" height="11" class="cls-2"/>
  </g>
</svg>
