<?xml version="1.0" encoding="utf-8"?>
<!-- Generator: Adobe Illustrator 18.0.0, SVG Export Plug-In . SVG Version: 6.00 Build 0)  -->
<!DOCTYPE svg PUBLIC "-//W3C//DTD SVG 1.1//EN" "http://www.w3.org/Graphics/SVG/1.1/DTD/svg11.dtd">
<svg version="1.1" id="Layer_1" xmlns="http://www.w3.org/2000/svg" xmlns:xlink="http://www.w3.org/1999/xlink" x="0px" y="0px"
	 viewBox="0 0 78 61" enable-background="new 0 0 78 61" xml:space="preserve" width="78" height="61">
<g>
	<path fill="#A5D3F5" d="M43,25c0,1.1-0.9,2-2,2h-4.2c-0.2,1.5-0.6,2.9-1.1,4.3l3.7,2.1c1,0.6,1.3,1.8,0.7,2.7l-1,1.7
		c-0.6,1-1.8,1.3-2.7,0.7l-3.7-2.1c-0.9,1.2-2,2.2-3.1,3.1l2.1,3.7c0.6,1,0.2,2.2-0.7,2.7l-1.7,1c-1,0.6-2.2,0.2-2.7-0.7l-2.1-3.7
		c-1.4,0.5-2.8,0.9-4.3,1.1V48c0,1.1-0.9,2-2,2h-2c-1.1,0-2-0.9-2-2v-4.2c-1.5-0.2-2.9-0.6-4.3-1.1l-2.1,3.7c-0.6,1-1.8,1.3-2.7,0.7
		l-1.7-1c-1-0.6-1.3-1.8-0.7-2.7l2.1-3.7c-1.2-0.9-2.2-2-3.1-3.1L1,36.7V11.3l0.4,0.2c0.4-0.5,0.9-1,1.4-1.5h28.5
		c0.5,0.5,0.9,1,1.4,1.5l2.6-1.5h3.7c0,0,0.1,0.1,0.1,0.1l1,1.7c0.6,1,0.2,2.2-0.7,2.7l-3.7,2.1c0.5,1.4,0.9,2.8,1.1,4.3H41
		c1.1,0,2,0.9,2,2V25z"/>
	<path fill="#FFFFFF" d="M17.1,10.5c-7.6,0-13.7,6.2-13.7,13.8C3.3,31.8,9.5,38,17.1,38c0.6,0,1.2,0,1.8-0.1
		c6.1-0.8,11-5.6,11.8-11.8c0.1-0.6,0.1-1.2,0.1-1.9C30.8,16.7,24.7,10.5,17.1,10.5z M4.7,24.3c0-1.8,0.4-3.5,1.1-5l5.9,16.1
		C7.6,33.4,4.7,29.1,4.7,24.3z M18.7,36.5c-0.5,0.1-1.1,0.1-1.6,0.1c-1.2,0-2.4-0.2-3.5-0.5l1.3-3.9h0l2.3-6.8l3.8,10.4
		c0,0.1,0.1,0.1,0.1,0.2C20.4,36.2,19.5,36.4,18.7,36.5z M18.8,18.5c0.7,0,1.4-0.1,1.4-0.1c0.7-0.1,0.6-1.1-0.1-1c0,0-2,0.2-3.3,0.2
		c-1.2,0-3.3-0.2-3.3-0.2c-0.7,0-0.7,1-0.1,1c0,0,0.6,0.1,1.3,0.1l1.9,5.3L14,31.8L9.5,18.5c0.8,0,1.4-0.1,1.4-0.1
		c0.7-0.1,0.6-1.1-0.1-1c0,0-2,0.2-3.3,0.2c-0.2,0-0.5,0-0.8,0c2.2-3.4,6-5.6,10.3-5.6c3.2,0,6.2,1.2,8.4,3.2c-0.1,0-0.1,0-0.2,0
		c-1.2,0-2.1,1.1-2.1,2.2c0,1,0.6,1.9,1.2,2.9c0.5,0.8,1,1.9,1,3.4c0,1.1-0.3,2.4-0.9,4l-1.2,4.1L18.8,18.5z M23.3,34.9l1-2.8
		l2.8-8.1c0.7-1.8,0.9-3.2,0.9-4.4c0-0.5,0-0.9-0.1-1.3c1,1.8,1.5,3.8,1.5,5.9c0,0.6,0,1.1-0.1,1.7C28.8,29.8,26.5,33.1,23.3,34.9z"
		/>
	<path fill="#0F7FD2" d="M71,24V11H2v39c0,1.1,0.9,2,2,2h35v2H3c-1.7,0-3-1.3-3-3V3c0-1.7,1.3-3,3-3h67c1.7,0,3,1.3,3,3v21H71z
		 M71,4c0-1.1-0.9-2-2-2H4C2.9,2,2,2.9,2,4v5h69V4z M6.5,4C7.3,4,8,4.7,8,5.5S7.3,7,6.5,7S5,6.3,5,5.5S5.7,4,6.5,4z M11.5,4
		C12.3,4,13,4.7,13,5.5S12.3,7,11.5,7S10,6.3,10,5.5S10.7,4,11.5,4z M16.5,4C17.3,4,18,4.7,18,5.5S17.3,7,16.5,7
		C15.7,7,15,6.3,15,5.5S15.7,4,16.5,4z"/>
	<path fill="#FF9F17" d="M76.5,44.2h-3.1c-0.2,1.1-0.4,2.1-0.8,3.1l2.7,1.5c0.7,0.4,0.9,1.3,0.5,2l-0.7,1.3c-0.4,0.7-1.3,0.9-2,0.5
		l-2.7-1.5c-0.7,0.8-1.4,1.6-2.3,2.3l1.5,2.7c0.4,0.7,0.2,1.6-0.5,2l-1.3,0.7c-0.7,0.4-1.6,0.2-2-0.5l-1.5-2.7c-1,0.4-2,0.7-3.1,0.8
		V59c0,1.1-0.9,2-2,2h-0.4c-1.1,0-2-0.9-2-2v-2.6c-1.1-0.2-2.1-0.4-3.1-0.8l-1.5,2.7c-0.4,0.7-1.3,0.9-2,0.5l-1.3-0.7
		c-0.7-0.4-0.9-1.3-0.5-2l1.5-2.7c-0.8-0.7-1.6-1.4-2.3-2.3l-2.7,1.5c-0.7,0.4-1.6,0.2-2-0.5l-0.7-1.3c-0.4-0.7-0.2-1.6,0.5-2
		l2.7-1.5c-0.4-1-0.7-2-0.8-3.1h-3.1c-0.8,0-1.5-0.7-1.5-1.5v-1.5c0-0.8,0.7-1.5,1.5-1.5h3.1c0.2-1.1,0.4-2.1,0.8-3.1l-2.7-1.5
		c-0.7-0.4-0.9-1.3-0.5-2l0.7-1.3c0.4-0.7,1.3-0.9,2-0.5l2.7,1.5c0.7-0.8,1.4-1.6,2.3-2.3l-1.5-2.7c-0.4-0.7-0.2-1.6,0.5-2l1.3-0.7
		c0.7-0.4,1.6-0.2,2,0.5l1.5,2.7c1-0.4,2-0.7,3.1-0.8V25c0-1.1,0.9-2,2-2h0.4c1.1,0,2,0.9,2,2v2.6c1.1,0.2,2.1,0.4,3.1,0.8l1.5-2.7
		c0.4-0.7,1.3-0.9,2-0.5l1.3,0.7c0.7,0.4,0.9,1.3,0.5,2l-1.5,2.7c0.8,0.7,1.6,1.4,2.3,2.3l2.7-1.5c0.7-0.4,1.6-0.2,2,0.5l0.7,1.3
		c0.4,0.7,0.2,1.6-0.5,2l-2.7,1.5c0.4,1,0.7,2,0.8,3.1h3.1c0.8,0,1.5,0.7,1.5,1.5v1.5C78,43.5,77.3,44.2,76.5,44.2z M59,35.4
		c-3.6,0-6.6,2.9-6.6,6.6s2.9,6.6,6.6,6.6s6.6-2.9,6.6-6.6S62.6,35.4,59,35.4z"/>
</g>
</svg>
