<svg xmlns="http://www.w3.org/2000/svg" xmlns:xlink="http://www.w3.org/1999/xlink" preserveAspectRatio="xMidYMid" width="515" height="430" viewBox="0 0 515 430">
  <defs>
    <style>
      .cls-1 {
        fill: #fff;
      }

      .cls-1, .cls-2, .cls-3, .cls-4 {
        fill-rule: evenodd;
      }

      .cls-2 {
        fill: #a5d3f5;
      }

      .cls-3 {
        fill: #ff9f17;
      }

      .cls-4 {
        fill: #0f7fd2;
      }
    </style>
  </defs>
  <g>
    <path d="M460.000,420.000 L460.000,187.000 L494.000,187.000 L494.000,420.000 L460.000,420.000 ZM420.000,217.000 L454.000,217.000 L454.000,420.000 L420.000,420.000 L420.000,217.000 ZM380.000,227.000 L414.000,227.000 L414.000,420.000 L380.000,420.000 L380.000,227.000 ZM340.000,253.000 L374.000,253.000 L374.000,420.000 L340.000,420.000 L340.000,253.000 ZM300.000,267.000 L334.000,267.000 L334.000,420.000 L300.000,420.000 L300.000,267.000 ZM260.000,291.000 L294.000,291.000 L294.000,420.000 L260.000,420.000 L260.000,291.000 ZM220.000,326.000 L254.000,326.000 L254.000,420.000 L220.000,420.000 L220.000,326.000 ZM180.000,347.000 L214.000,347.000 L214.000,420.000 L180.000,420.000 L180.000,347.000 ZM140.000,357.000 L174.000,357.000 L174.000,420.000 L140.000,420.000 L140.000,357.000 ZM100.000,387.000 L134.000,387.000 L134.000,420.000 L100.000,420.000 L100.000,387.000 ZM60.000,407.000 L94.000,407.000 L94.000,420.000 L60.000,420.000 L60.000,407.000 ZM20.000,417.000 L54.000,417.000 L54.000,420.000 L20.000,420.000 L20.000,417.000 Z" class="cls-1"/>
    <path d="M505.000,15.000 C503.312,15.000 501.826,14.158 500.921,12.877 L447.783,68.764 C448.531,69.638 449.000,70.759 449.000,72.000 C449.000,74.761 446.761,77.000 444.000,77.000 C443.827,77.000 443.663,76.966 443.495,76.949 L437.262,113.564 C438.881,114.392 440.000,116.057 440.000,118.000 C440.000,120.761 437.761,123.000 435.000,123.000 C433.335,123.000 431.871,122.178 430.962,120.927 L423.173,125.254 C423.693,126.043 424.000,126.985 424.000,128.000 C424.000,130.726 421.816,132.933 419.104,132.989 L413.524,156.707 C414.999,157.576 416.000,159.164 416.000,161.000 C416.000,163.761 413.761,166.000 411.000,166.000 C409.547,166.000 408.250,165.370 407.337,164.381 L396.807,170.699 C396.920,171.116 397.000,171.547 397.000,172.000 C397.000,174.761 394.761,177.000 392.000,177.000 C389.821,177.000 387.987,175.598 387.302,173.653 L363.969,179.310 C363.806,181.924 361.655,184.000 359.000,184.000 C356.585,184.000 354.570,182.287 354.102,180.010 L342.991,179.084 C342.945,181.806 340.732,184.000 338.000,184.000 C336.010,184.000 334.307,182.829 333.502,181.146 L321.147,188.206 C321.685,189.004 322.000,189.965 322.000,191.000 C322.000,193.761 319.761,196.000 317.000,196.000 C316.581,196.000 316.181,195.933 315.792,195.836 L310.892,212.376 C312.714,213.122 314.000,214.909 314.000,217.000 C314.000,219.761 311.761,222.000 309.000,222.000 C307.514,222.000 306.195,221.339 305.279,220.311 L296.680,225.289 C296.876,225.825 297.000,226.396 297.000,227.000 C297.000,229.761 294.761,232.000 292.000,232.000 C290.965,232.000 290.004,231.685 289.206,231.147 L282.286,243.258 C283.328,244.175 284.000,245.503 284.000,247.000 C284.000,249.761 281.761,252.000 279.000,252.000 C277.503,252.000 276.174,251.328 275.258,250.285 L250.325,264.533 C250.742,265.264 251.000,266.098 251.000,267.000 C251.000,269.761 248.761,272.000 246.000,272.000 C245.288,272.000 244.614,271.846 244.001,271.578 L231.146,310.143 C232.269,311.060 233.000,312.438 233.000,314.000 C233.000,316.761 230.761,319.000 228.000,319.000 C226.044,319.000 224.367,317.865 223.546,316.228 L201.898,322.993 C201.965,323.318 202.000,323.655 202.000,324.000 C202.000,326.761 199.761,329.000 197.000,329.000 C194.314,329.000 192.140,326.877 192.022,324.220 L131.984,320.838 C131.985,320.893 132.000,320.944 132.000,321.000 C132.000,323.761 129.761,326.000 127.000,326.000 C125.236,326.000 123.693,325.081 122.803,323.701 L111.703,330.362 C111.883,330.877 112.000,331.423 112.000,332.000 C112.000,334.761 109.761,337.000 107.000,337.000 C104.239,337.000 102.000,334.761 102.000,332.000 C102.000,331.590 102.063,331.198 102.156,330.816 L90.749,327.489 C90.112,329.518 88.239,331.000 86.000,331.000 C84.225,331.000 82.676,330.069 81.789,328.676 L60.278,341.448 C60.726,342.197 61.000,343.063 61.000,344.000 C61.000,346.761 58.761,349.000 56.000,349.000 C55.046,349.000 54.163,348.718 53.404,348.254 L12.689,415.522 C12.414,415.334 12.101,415.200 11.769,415.112 L52.602,347.649 C51.622,346.736 51.000,345.445 51.000,344.000 C51.000,341.239 53.239,339.000 56.000,339.000 C57.462,339.000 58.766,339.639 59.680,340.640 L81.341,327.778 C81.129,327.224 81.000,326.629 81.000,326.000 C81.000,323.239 83.239,321.000 86.000,321.000 C88.761,321.000 91.000,323.239 91.000,326.000 C91.000,326.173 90.966,326.337 90.949,326.506 L102.491,329.872 C103.292,328.179 105.003,327.000 107.000,327.000 C108.825,327.000 110.406,327.989 111.279,329.449 L122.350,322.807 C122.131,322.245 122.000,321.639 122.000,321.000 C122.000,318.239 124.239,316.000 127.000,316.000 C129.356,316.000 131.318,317.635 131.848,319.829 L192.078,323.222 C192.454,320.833 194.505,319.000 197.000,319.000 C199.065,319.000 200.836,320.253 201.599,322.039 L223.190,315.292 C223.078,314.877 223.000,314.450 223.000,314.000 C223.000,311.239 225.239,309.000 228.000,309.000 C228.827,309.000 229.594,309.220 230.281,309.575 L243.115,271.073 C241.839,270.167 241.000,268.684 241.000,267.000 C241.000,264.239 243.239,262.000 246.000,262.000 C247.497,262.000 248.825,262.672 249.742,263.714 L274.675,249.467 C274.258,248.736 274.000,247.902 274.000,247.000 C274.000,244.239 276.239,242.000 279.000,242.000 C279.902,242.000 280.736,242.258 281.467,242.675 L288.429,230.492 C287.547,229.591 287.000,228.360 287.000,227.000 C287.000,224.239 289.239,222.000 292.000,222.000 C293.800,222.000 295.364,222.959 296.245,224.386 L304.691,219.496 C304.263,218.759 304.000,217.914 304.000,217.000 C304.000,214.239 306.239,212.000 309.000,212.000 C309.319,212.000 309.630,212.037 309.932,212.094 L314.850,195.496 C313.169,194.691 312.000,192.988 312.000,191.000 C312.000,188.239 314.239,186.000 317.000,186.000 C318.360,186.000 319.591,186.547 320.492,187.429 L333.158,180.191 C333.064,179.807 333.000,179.413 333.000,179.000 C333.000,176.239 335.239,174.000 338.000,174.000 C340.444,174.000 342.471,175.756 342.907,178.074 L354.000,178.998 C354.001,176.238 356.239,174.000 359.000,174.000 C361.518,174.000 363.581,175.868 363.928,178.291 L387.069,172.681 C387.038,172.456 387.000,172.233 387.000,172.000 C387.000,169.239 389.239,167.000 392.000,167.000 C393.948,167.000 395.618,168.125 396.443,169.751 L406.735,163.576 C406.278,162.822 406.000,161.946 406.000,161.000 C406.000,158.239 408.239,156.000 411.000,156.000 C411.562,156.000 412.092,156.113 412.596,156.284 L418.096,132.909 C415.768,132.482 414.000,130.452 414.000,128.000 C414.000,125.239 416.239,123.000 419.000,123.000 C420.381,123.000 421.630,123.560 422.535,124.464 L430.456,120.063 C430.170,119.433 430.000,118.738 430.000,118.000 C430.000,115.239 432.239,113.000 435.000,113.000 C435.457,113.000 435.890,113.081 436.311,113.196 L442.514,76.750 C440.483,76.114 439.000,74.240 439.000,72.000 C439.000,69.239 441.239,67.000 444.000,67.000 C445.176,67.000 446.244,67.423 447.098,68.103 L500.429,12.013 C500.157,11.396 500.000,10.718 500.000,10.000 C500.000,7.239 502.239,5.000 505.000,5.000 C507.761,5.000 510.000,7.239 510.000,10.000 C510.000,12.761 507.761,15.000 505.000,15.000 ZM56.000,341.000 C54.343,341.000 53.000,342.343 53.000,344.000 C53.000,345.657 54.343,347.000 56.000,347.000 C57.657,347.000 59.000,345.657 59.000,344.000 C59.000,342.343 57.657,341.000 56.000,341.000 ZM86.000,323.000 C84.343,323.000 83.000,324.343 83.000,326.000 C83.000,327.657 84.343,329.000 86.000,329.000 C87.657,329.000 89.000,327.657 89.000,326.000 C89.000,324.343 87.657,323.000 86.000,323.000 ZM107.000,329.000 C105.343,329.000 104.000,330.343 104.000,332.000 C104.000,333.657 105.343,335.000 107.000,335.000 C108.657,335.000 110.000,333.657 110.000,332.000 C110.000,330.343 108.657,329.000 107.000,329.000 ZM127.000,318.000 C125.343,318.000 124.000,319.343 124.000,321.000 C124.000,322.657 125.343,324.000 127.000,324.000 C128.657,324.000 130.000,322.657 130.000,321.000 C130.000,319.343 128.657,318.000 127.000,318.000 ZM197.000,321.000 C195.343,321.000 194.000,322.343 194.000,324.000 C194.000,325.657 195.343,327.000 197.000,327.000 C198.657,327.000 200.000,325.657 200.000,324.000 C200.000,322.343 198.657,321.000 197.000,321.000 ZM228.000,311.000 C226.343,311.000 225.000,312.343 225.000,314.000 C225.000,315.657 226.343,317.000 228.000,317.000 C229.657,317.000 231.000,315.657 231.000,314.000 C231.000,312.343 229.657,311.000 228.000,311.000 ZM246.000,264.000 C244.343,264.000 243.000,265.343 243.000,267.000 C243.000,268.657 244.343,270.000 246.000,270.000 C247.657,270.000 249.000,268.657 249.000,267.000 C249.000,265.343 247.657,264.000 246.000,264.000 ZM279.000,244.000 C277.343,244.000 276.000,245.343 276.000,247.000 C276.000,248.657 277.343,250.000 279.000,250.000 C280.657,250.000 282.000,248.657 282.000,247.000 C282.000,245.343 280.657,244.000 279.000,244.000 ZM292.000,224.000 C290.343,224.000 289.000,225.343 289.000,227.000 C289.000,228.657 290.343,230.000 292.000,230.000 C293.657,230.000 295.000,228.657 295.000,227.000 C295.000,225.343 293.657,224.000 292.000,224.000 ZM309.000,214.000 C307.343,214.000 306.000,215.343 306.000,217.000 C306.000,218.657 307.343,220.000 309.000,220.000 C310.657,220.000 312.000,218.657 312.000,217.000 C312.000,215.343 310.657,214.000 309.000,214.000 ZM317.000,188.000 C315.343,188.000 314.000,189.343 314.000,191.000 C314.000,192.657 315.343,194.000 317.000,194.000 C318.657,194.000 320.000,192.657 320.000,191.000 C320.000,189.343 318.657,188.000 317.000,188.000 ZM338.000,176.000 C336.343,176.000 335.000,177.343 335.000,179.000 C335.000,180.657 336.343,182.000 338.000,182.000 C339.657,182.000 341.000,180.657 341.000,179.000 C341.000,177.343 339.657,176.000 338.000,176.000 ZM359.000,176.000 C357.343,176.000 356.000,177.343 356.000,179.000 C356.000,180.657 357.343,182.000 359.000,182.000 C360.657,182.000 362.000,180.657 362.000,179.000 C362.000,177.343 360.657,176.000 359.000,176.000 ZM392.000,169.000 C390.343,169.000 389.000,170.343 389.000,172.000 C389.000,173.657 390.343,175.000 392.000,175.000 C393.657,175.000 395.000,173.657 395.000,172.000 C395.000,170.343 393.657,169.000 392.000,169.000 ZM411.000,158.000 C409.343,158.000 408.000,159.343 408.000,161.000 C408.000,162.657 409.343,164.000 411.000,164.000 C412.657,164.000 414.000,162.657 414.000,161.000 C414.000,159.343 412.657,158.000 411.000,158.000 ZM419.000,125.000 C417.343,125.000 416.000,126.343 416.000,128.000 C416.000,129.657 417.343,131.000 419.000,131.000 C420.657,131.000 422.000,129.657 422.000,128.000 C422.000,126.343 420.657,125.000 419.000,125.000 ZM435.000,115.000 C433.343,115.000 432.000,116.343 432.000,118.000 C432.000,119.657 433.343,121.000 435.000,121.000 C436.657,121.000 438.000,119.657 438.000,118.000 C438.000,116.343 436.657,115.000 435.000,115.000 ZM444.000,69.000 C442.343,69.000 441.000,70.343 441.000,72.000 C441.000,73.657 442.343,75.000 444.000,75.000 C445.657,75.000 447.000,73.657 447.000,72.000 C447.000,70.343 445.657,69.000 444.000,69.000 ZM505.000,7.000 C503.343,7.000 502.000,8.343 502.000,10.000 C502.000,11.657 503.343,13.000 505.000,13.000 C506.657,13.000 508.000,11.657 508.000,10.000 C508.000,8.343 506.657,7.000 505.000,7.000 Z" class="cls-2"/>
    <path d="M504.000,150.000 C503.306,150.000 502.645,149.858 502.044,149.602 L489.854,168.850 C490.559,169.712 491.000,170.799 491.000,172.000 C491.000,174.761 488.761,177.000 486.000,177.000 C483.581,177.000 481.564,175.282 481.101,173.000 L466.899,173.000 C466.436,175.282 464.419,177.000 462.000,177.000 C461.159,177.000 460.379,176.773 459.684,176.406 L438.583,200.522 C439.457,201.422 440.000,202.646 440.000,204.000 C440.000,206.761 437.761,209.000 435.000,209.000 C432.581,209.000 430.564,207.282 430.101,205.000 L413.899,205.000 C413.436,207.282 411.419,209.000 409.000,209.000 C406.952,209.000 405.196,207.765 404.423,206.002 L382.885,212.950 C382.958,213.289 383.000,213.639 383.000,214.000 C383.000,216.761 380.761,219.000 378.000,219.000 C376.503,219.000 375.175,218.329 374.259,217.287 L340.321,241.528 C340.741,242.259 341.000,243.096 341.000,244.000 C341.000,246.761 338.761,249.000 336.000,249.000 C333.239,249.000 331.000,246.761 331.000,244.000 C331.000,244.000 331.000,244.000 331.000,244.000 L309.000,244.000 C309.000,244.000 309.000,244.000 309.000,244.000 C309.000,246.761 306.761,249.000 304.000,249.000 C303.312,249.000 302.656,248.860 302.059,248.609 L291.063,266.074 C292.234,266.989 293.000,268.399 293.000,270.000 C293.000,272.761 290.761,275.000 288.000,275.000 C285.834,275.000 284.007,273.614 283.313,271.687 L261.903,277.039 C261.964,277.351 262.000,277.671 262.000,278.000 C262.000,280.761 259.761,283.000 257.000,283.000 C256.287,283.000 255.612,282.846 254.999,282.577 L250.871,289.916 C252.155,290.821 253.000,292.309 253.000,294.000 C253.000,296.761 250.761,299.000 248.000,299.000 C246.267,299.000 244.742,298.118 243.845,296.779 L225.444,304.753 C225.788,305.431 226.000,306.187 226.000,307.000 C226.000,309.761 223.761,312.000 221.000,312.000 C219.821,312.000 218.752,311.575 217.897,310.892 L200.194,336.292 C200.699,337.074 201.000,338.000 201.000,339.000 C201.000,341.761 198.761,344.000 196.000,344.000 C193.581,344.000 191.564,342.282 191.101,340.000 L161.899,340.000 C161.436,342.282 159.419,344.000 157.000,344.000 C155.411,344.000 154.012,343.245 153.096,342.089 L121.424,358.717 C121.780,359.404 122.000,360.173 122.000,361.000 C122.000,363.761 119.761,366.000 117.000,366.000 C116.253,366.000 115.551,365.825 114.915,365.531 L110.342,373.305 C111.353,374.220 112.000,375.529 112.000,377.000 C112.000,379.761 109.761,382.000 107.000,382.000 C104.581,382.000 102.564,380.282 102.101,378.000 L93.899,378.000 C93.436,380.282 91.419,382.000 89.000,382.000 C88.058,382.000 87.188,381.724 86.436,381.272 L74.271,393.435 C74.724,394.188 75.000,395.058 75.000,396.000 C75.000,398.761 72.761,401.000 70.000,401.000 C67.581,401.000 65.564,399.282 65.101,397.000 L44.899,397.000 C44.436,399.282 42.419,401.000 40.000,401.000 C38.847,401.000 37.799,400.594 36.953,399.939 L15.253,416.401 C15.718,417.160 16.000,418.044 16.000,419.000 C16.000,421.761 13.761,424.000 11.000,424.000 C8.239,424.000 6.000,421.761 6.000,419.000 C6.000,416.239 8.239,414.000 11.000,414.000 C12.446,414.000 13.737,414.623 14.650,415.603 L36.220,399.240 C35.470,398.365 35.000,397.243 35.000,396.000 C35.000,393.239 37.239,391.000 40.000,391.000 C42.761,391.000 45.000,393.239 45.000,396.000 C45.000,396.000 45.000,396.000 45.000,396.000 L65.000,396.000 C65.000,396.000 65.000,396.000 65.000,396.000 C65.000,393.239 67.239,391.000 70.000,391.000 C71.456,391.000 72.754,391.632 73.668,392.625 L85.625,380.668 C84.632,379.754 84.000,378.456 84.000,377.000 C84.000,374.239 86.239,372.000 89.000,372.000 C91.761,372.000 94.000,374.238 94.000,377.000 L102.000,377.000 C102.000,374.238 104.239,372.000 107.000,372.000 C107.928,372.000 108.786,372.270 109.531,372.710 L114.054,365.022 C112.814,364.112 112.000,362.656 112.000,361.000 C112.000,358.239 114.239,356.000 117.000,356.000 C118.573,356.000 119.959,356.741 120.875,357.876 L152.555,341.244 C152.212,340.567 152.000,339.811 152.000,339.000 C152.000,336.239 154.239,334.000 157.000,334.000 C159.761,334.000 162.000,336.239 162.000,339.000 C162.000,339.000 162.000,339.000 162.000,339.000 L191.000,339.000 C191.000,339.000 191.000,339.000 191.000,339.000 C191.000,336.239 193.239,334.000 196.000,334.000 C197.386,334.000 198.639,334.565 199.544,335.475 L217.173,310.182 C216.451,309.315 216.000,308.216 216.000,307.000 C216.000,304.239 218.239,302.000 221.000,302.000 C222.584,302.000 223.979,302.751 224.895,303.901 L243.376,295.892 C243.137,295.308 243.000,294.670 243.000,294.000 C243.000,291.239 245.239,289.000 248.000,289.000 C248.713,289.000 249.388,289.154 250.001,289.423 L254.129,282.084 C252.845,281.179 252.000,279.691 252.000,278.000 C252.000,275.239 254.239,273.000 257.000,273.000 C259.081,273.000 260.863,274.272 261.615,276.081 L283.072,270.717 C283.038,270.481 283.000,270.245 283.000,270.000 C283.000,267.239 285.239,265.000 288.000,265.000 C288.801,265.000 289.546,265.206 290.217,265.540 L301.181,248.127 C299.865,247.226 299.000,245.715 299.000,244.000 C299.000,241.239 301.239,239.000 304.000,239.000 C306.419,239.000 308.436,240.718 308.899,243.000 L331.101,243.000 C331.564,240.718 333.581,239.000 336.000,239.000 C337.497,239.000 338.825,239.671 339.741,240.713 L373.678,216.472 C373.259,215.741 373.000,214.904 373.000,214.000 C373.000,211.239 375.239,209.000 378.000,209.000 C380.048,209.000 381.804,210.235 382.577,211.998 L404.115,205.050 C404.042,204.711 404.000,204.361 404.000,204.000 C404.000,201.239 406.239,199.000 409.000,199.000 C411.761,199.000 414.000,201.239 414.000,204.000 L430.000,204.000 C430.000,201.239 432.239,199.000 435.000,199.000 C436.047,199.000 437.017,199.324 437.821,199.875 L458.844,175.848 C457.727,174.931 457.000,173.558 457.000,172.000 C457.000,169.239 459.239,167.000 462.000,167.000 C464.761,167.000 467.000,169.239 467.000,172.000 L481.000,172.000 C481.000,169.239 483.239,167.000 486.000,167.000 C487.190,167.000 488.269,167.433 489.127,168.128 L501.168,149.116 C499.860,148.214 499.000,146.709 499.000,145.000 C499.000,142.239 501.239,140.000 504.000,140.000 C506.761,140.000 509.000,142.239 509.000,145.000 C509.000,147.761 506.761,150.000 504.000,150.000 ZM11.000,416.000 C9.343,416.000 8.000,417.343 8.000,419.000 C8.000,420.657 9.343,422.000 11.000,422.000 C12.657,422.000 14.000,420.657 14.000,419.000 C14.000,417.343 12.657,416.000 11.000,416.000 ZM40.000,393.000 C38.343,393.000 37.000,394.343 37.000,396.000 C37.000,397.657 38.343,399.000 40.000,399.000 C41.657,399.000 43.000,397.657 43.000,396.000 C43.000,394.343 41.657,393.000 40.000,393.000 ZM70.000,393.000 C68.343,393.000 67.000,394.343 67.000,396.000 C67.000,397.657 68.343,399.000 70.000,399.000 C71.657,399.000 73.000,397.657 73.000,396.000 C73.000,394.343 71.657,393.000 70.000,393.000 ZM89.000,374.000 C87.343,374.000 86.000,375.343 86.000,377.000 C86.000,378.657 87.343,380.000 89.000,380.000 C90.657,380.000 92.000,378.657 92.000,377.000 C92.000,375.343 90.657,374.000 89.000,374.000 ZM107.000,374.000 C105.343,374.000 104.000,375.343 104.000,377.000 C104.000,378.657 105.343,380.000 107.000,380.000 C108.657,380.000 110.000,378.657 110.000,377.000 C110.000,375.343 108.657,374.000 107.000,374.000 ZM117.000,358.000 C115.343,358.000 114.000,359.343 114.000,361.000 C114.000,362.657 115.343,364.000 117.000,364.000 C118.657,364.000 120.000,362.657 120.000,361.000 C120.000,359.343 118.657,358.000 117.000,358.000 ZM157.000,336.000 C155.343,336.000 154.000,337.343 154.000,339.000 C154.000,340.657 155.343,342.000 157.000,342.000 C158.657,342.000 160.000,340.657 160.000,339.000 C160.000,337.343 158.657,336.000 157.000,336.000 ZM196.000,336.000 C194.343,336.000 193.000,337.343 193.000,339.000 C193.000,340.657 194.343,342.000 196.000,342.000 C197.657,342.000 199.000,340.657 199.000,339.000 C199.000,337.343 197.657,336.000 196.000,336.000 ZM221.000,304.000 C219.343,304.000 218.000,305.343 218.000,307.000 C218.000,308.657 219.343,310.000 221.000,310.000 C222.657,310.000 224.000,308.657 224.000,307.000 C224.000,305.343 222.657,304.000 221.000,304.000 ZM248.000,291.000 C246.343,291.000 245.000,292.343 245.000,294.000 C245.000,295.657 246.343,297.000 248.000,297.000 C249.657,297.000 251.000,295.657 251.000,294.000 C251.000,292.343 249.657,291.000 248.000,291.000 ZM257.000,275.000 C255.343,275.000 254.000,276.343 254.000,278.000 C254.000,279.657 255.343,281.000 257.000,281.000 C258.657,281.000 260.000,279.657 260.000,278.000 C260.000,276.343 258.657,275.000 257.000,275.000 ZM288.000,267.000 C286.343,267.000 285.000,268.343 285.000,270.000 C285.000,271.657 286.343,273.000 288.000,273.000 C289.657,273.000 291.000,271.657 291.000,270.000 C291.000,268.343 289.657,267.000 288.000,267.000 ZM304.000,241.000 C302.343,241.000 301.000,242.343 301.000,244.000 C301.000,245.657 302.343,247.000 304.000,247.000 C305.657,247.000 307.000,245.657 307.000,244.000 C307.000,242.343 305.657,241.000 304.000,241.000 ZM336.000,241.000 C334.343,241.000 333.000,242.343 333.000,244.000 C333.000,245.657 334.343,247.000 336.000,247.000 C337.657,247.000 339.000,245.657 339.000,244.000 C339.000,242.343 337.657,241.000 336.000,241.000 ZM378.000,211.000 C376.343,211.000 375.000,212.343 375.000,214.000 C375.000,215.657 376.343,217.000 378.000,217.000 C379.657,217.000 381.000,215.657 381.000,214.000 C381.000,212.343 379.657,211.000 378.000,211.000 ZM409.000,201.000 C407.343,201.000 406.000,202.343 406.000,204.000 C406.000,205.657 407.343,207.000 409.000,207.000 C410.657,207.000 412.000,205.657 412.000,204.000 C412.000,202.343 410.657,201.000 409.000,201.000 ZM435.000,201.000 C433.343,201.000 432.000,202.343 432.000,204.000 C432.000,205.657 433.343,207.000 435.000,207.000 C436.657,207.000 438.000,205.657 438.000,204.000 C438.000,202.343 436.657,201.000 435.000,201.000 ZM462.000,169.000 C460.343,169.000 459.000,170.343 459.000,172.000 C459.000,173.657 460.343,175.000 462.000,175.000 C463.657,175.000 465.000,173.657 465.000,172.000 C465.000,170.343 463.657,169.000 462.000,169.000 ZM486.000,169.000 C484.343,169.000 483.000,170.343 483.000,172.000 C483.000,173.657 484.343,175.000 486.000,175.000 C487.657,175.000 489.000,173.657 489.000,172.000 C489.000,170.343 487.657,169.000 486.000,169.000 ZM504.000,142.000 C502.343,142.000 501.000,143.343 501.000,145.000 C501.000,146.657 502.343,148.000 504.000,148.000 C505.657,148.000 507.000,146.657 507.000,145.000 C507.000,143.343 505.657,142.000 504.000,142.000 Z" class="cls-3"/>
    <path d="M505.000,94.000 C502.581,94.000 500.564,92.282 500.101,90.000 L457.899,90.000 C457.436,92.282 455.419,94.000 453.000,94.000 C451.189,94.000 449.618,93.028 448.741,91.587 L415.701,107.356 C415.882,107.873 416.000,108.421 416.000,109.000 C416.000,111.761 413.761,114.000 411.000,114.000 C408.581,114.000 406.564,112.282 406.101,110.000 L385.899,110.000 C385.436,112.282 383.419,114.000 381.000,114.000 C380.007,114.000 379.087,113.702 378.308,113.202 L353.961,135.980 C354.603,136.821 355.000,137.860 355.000,139.000 C355.000,141.761 352.761,144.000 350.000,144.000 C347.858,144.000 346.045,142.646 345.333,140.753 L321.888,146.959 C321.959,147.295 322.000,147.642 322.000,148.000 C322.000,150.761 319.761,153.000 317.000,153.000 C315.791,153.000 314.698,152.554 313.833,151.840 L298.462,171.403 C299.407,172.313 300.000,173.585 300.000,175.000 C300.000,177.761 297.761,180.000 295.000,180.000 C292.239,180.000 290.000,177.761 290.000,175.000 L272.000,175.000 C272.000,177.761 269.761,180.000 267.000,180.000 C265.411,180.000 264.011,179.244 263.096,178.088 L238.448,198.761 C238.790,199.437 239.000,200.191 239.000,201.000 C239.000,203.761 236.761,206.000 234.000,206.000 C231.239,206.000 229.000,203.761 229.000,201.000 L203.000,201.000 C203.000,203.761 200.761,206.000 198.000,206.000 C197.153,206.000 196.368,205.770 195.669,205.398 L178.724,230.815 C180.092,231.707 181.000,233.245 181.000,235.000 C181.000,237.761 178.761,240.000 176.000,240.000 C173.239,240.000 171.000,237.761 171.000,235.000 L151.000,235.000 C151.000,237.761 148.761,240.000 146.000,240.000 C144.716,240.000 143.558,239.502 142.672,238.707 L127.590,256.531 C128.460,257.431 129.000,258.650 129.000,260.000 C129.000,262.761 126.761,265.000 124.000,265.000 C121.919,265.000 120.138,263.728 119.385,261.919 L101.928,266.284 C101.962,266.520 102.000,266.755 102.000,267.000 C102.000,269.761 99.761,272.000 97.000,272.000 C96.228,272.000 95.506,271.811 94.854,271.498 L82.648,291.601 C83.481,292.494 84.000,293.683 84.000,295.000 C84.000,297.761 81.761,300.000 79.000,300.000 C76.848,300.000 75.030,298.634 74.325,296.727 L56.945,300.452 C56.965,300.634 57.000,300.812 57.000,301.000 C57.000,303.761 54.761,306.000 52.000,306.000 C51.390,306.000 50.813,305.875 50.273,305.675 L33.626,339.762 C35.046,340.644 36.000,342.205 36.000,344.000 C36.000,346.761 33.761,349.000 31.000,349.000 C29.530,349.000 28.221,348.354 27.306,347.343 L15.572,355.989 C15.843,356.605 16.000,357.283 16.000,358.000 C16.000,360.761 13.761,363.000 11.000,363.000 C8.239,363.000 6.000,360.761 6.000,358.000 C6.000,355.239 8.239,353.000 11.000,353.000 C12.684,353.000 14.166,353.839 15.072,355.115 L26.714,346.537 C26.271,345.791 26.000,344.931 26.000,344.000 C26.000,341.239 28.239,339.000 31.000,339.000 C31.610,339.000 32.187,339.125 32.727,339.325 L49.374,305.238 C47.954,304.356 47.000,302.795 47.000,301.000 C47.000,298.239 49.239,296.000 52.000,296.000 C54.225,296.000 56.089,297.464 56.737,299.474 L74.076,295.758 C74.038,295.509 74.000,295.260 74.000,295.000 C74.000,292.239 76.239,290.000 79.000,290.000 C80.078,290.000 81.070,290.349 81.887,290.929 L94.000,270.978 C92.792,270.065 92.000,268.631 92.000,267.000 C92.000,264.239 94.239,262.000 97.000,262.000 C99.166,262.000 100.993,263.386 101.687,265.313 L119.097,260.960 C119.036,260.649 119.000,260.329 119.000,260.000 C119.000,257.239 121.239,255.000 124.000,255.000 C125.051,255.000 126.024,255.328 126.830,255.882 L141.992,237.963 C141.376,237.132 141.000,236.114 141.000,235.000 C141.000,232.239 143.239,230.000 146.000,230.000 C148.419,230.000 150.436,231.718 150.899,234.000 L171.101,234.000 C171.564,231.718 173.581,230.000 176.000,230.000 C176.647,230.000 177.261,230.133 177.828,230.356 L194.837,204.843 C193.724,203.926 193.000,202.555 193.000,201.000 C193.000,198.239 195.239,196.000 198.000,196.000 C200.419,196.000 202.436,197.718 202.899,200.000 L229.101,200.000 C229.564,197.718 231.581,196.000 234.000,196.000 C235.589,196.000 236.989,196.756 237.904,197.912 L262.552,177.239 C262.210,176.563 262.000,175.809 262.000,175.000 C262.000,172.239 264.239,170.000 267.000,170.000 C269.419,170.000 271.436,171.718 271.899,174.000 L290.101,174.000 C290.564,171.718 292.581,170.000 295.000,170.000 C295.986,170.000 296.899,170.295 297.674,170.788 L313.124,151.123 C312.432,150.265 312.000,149.188 312.000,148.000 C312.000,145.239 314.239,143.000 317.000,143.000 C319.051,143.000 320.810,144.238 321.581,146.006 L345.079,139.786 C345.038,139.528 345.000,139.269 345.000,139.000 C345.000,136.239 347.239,134.000 350.000,134.000 C351.260,134.000 352.397,134.482 353.276,135.250 L377.514,112.576 C376.582,111.668 376.000,110.404 376.000,109.000 C376.000,106.239 378.239,104.000 381.000,104.000 C383.761,104.000 386.000,106.239 386.000,109.000 L406.000,109.000 C406.000,106.239 408.239,104.000 411.000,104.000 C412.825,104.000 414.406,104.988 415.279,106.449 L448.311,90.684 C448.121,90.155 448.000,89.594 448.000,89.000 C448.000,86.239 450.239,84.000 453.000,84.000 C455.761,84.000 458.000,86.239 458.000,89.000 L500.000,89.000 C500.000,86.239 502.239,84.000 505.000,84.000 C507.761,84.000 510.000,86.239 510.000,89.000 C510.000,91.761 507.761,94.000 505.000,94.000 ZM11.000,355.000 C9.343,355.000 8.000,356.343 8.000,358.000 C8.000,359.657 9.343,361.000 11.000,361.000 C12.657,361.000 14.000,359.657 14.000,358.000 C14.000,356.343 12.657,355.000 11.000,355.000 ZM31.000,341.000 C29.343,341.000 28.000,342.343 28.000,344.000 C28.000,345.657 29.343,347.000 31.000,347.000 C32.657,347.000 34.000,345.657 34.000,344.000 C34.000,342.343 32.657,341.000 31.000,341.000 ZM52.000,298.000 C50.343,298.000 49.000,299.343 49.000,301.000 C49.000,302.657 50.343,304.000 52.000,304.000 C53.657,304.000 55.000,302.657 55.000,301.000 C55.000,299.343 53.657,298.000 52.000,298.000 ZM79.000,292.000 C77.343,292.000 76.000,293.343 76.000,295.000 C76.000,296.657 77.343,298.000 79.000,298.000 C80.657,298.000 82.000,296.657 82.000,295.000 C82.000,293.343 80.657,292.000 79.000,292.000 ZM97.000,264.000 C95.343,264.000 94.000,265.343 94.000,267.000 C94.000,268.657 95.343,270.000 97.000,270.000 C98.657,270.000 100.000,268.657 100.000,267.000 C100.000,265.343 98.657,264.000 97.000,264.000 ZM124.000,257.000 C122.343,257.000 121.000,258.343 121.000,260.000 C121.000,261.657 122.343,263.000 124.000,263.000 C125.657,263.000 127.000,261.657 127.000,260.000 C127.000,258.343 125.657,257.000 124.000,257.000 ZM146.000,232.000 C144.343,232.000 143.000,233.343 143.000,235.000 C143.000,236.657 144.343,238.000 146.000,238.000 C147.657,238.000 149.000,236.657 149.000,235.000 C149.000,233.343 147.657,232.000 146.000,232.000 ZM176.000,232.000 C174.343,232.000 173.000,233.343 173.000,235.000 C173.000,236.657 174.343,238.000 176.000,238.000 C177.657,238.000 179.000,236.657 179.000,235.000 C179.000,233.343 177.657,232.000 176.000,232.000 ZM198.000,198.000 C196.343,198.000 195.000,199.343 195.000,201.000 C195.000,202.657 196.343,204.000 198.000,204.000 C199.657,204.000 201.000,202.657 201.000,201.000 C201.000,199.343 199.657,198.000 198.000,198.000 ZM234.000,198.000 C232.343,198.000 231.000,199.343 231.000,201.000 C231.000,202.657 232.343,204.000 234.000,204.000 C235.657,204.000 237.000,202.657 237.000,201.000 C237.000,199.343 235.657,198.000 234.000,198.000 ZM267.000,172.000 C265.343,172.000 264.000,173.343 264.000,175.000 C264.000,176.657 265.343,178.000 267.000,178.000 C268.657,178.000 270.000,176.657 270.000,175.000 C270.000,173.343 268.657,172.000 267.000,172.000 ZM295.000,172.000 C293.343,172.000 292.000,173.343 292.000,175.000 C292.000,176.657 293.343,178.000 295.000,178.000 C296.657,178.000 298.000,176.657 298.000,175.000 C298.000,173.343 296.657,172.000 295.000,172.000 ZM317.000,145.000 C315.343,145.000 314.000,146.343 314.000,148.000 C314.000,149.657 315.343,151.000 317.000,151.000 C318.657,151.000 320.000,149.657 320.000,148.000 C320.000,146.343 318.657,145.000 317.000,145.000 ZM350.000,136.000 C348.343,136.000 347.000,137.343 347.000,139.000 C347.000,140.657 348.343,142.000 350.000,142.000 C351.657,142.000 353.000,140.657 353.000,139.000 C353.000,137.343 351.657,136.000 350.000,136.000 ZM381.000,106.000 C379.343,106.000 378.000,107.343 378.000,109.000 C378.000,110.657 379.343,112.000 381.000,112.000 C382.657,112.000 384.000,110.657 384.000,109.000 C384.000,107.343 382.657,106.000 381.000,106.000 ZM411.000,106.000 C409.343,106.000 408.000,107.343 408.000,109.000 C408.000,110.657 409.343,112.000 411.000,112.000 C412.657,112.000 414.000,110.657 414.000,109.000 C414.000,107.343 412.657,106.000 411.000,106.000 ZM453.000,86.000 C451.343,86.000 450.000,87.343 450.000,89.000 C450.000,90.657 451.343,92.000 453.000,92.000 C454.657,92.000 456.000,90.657 456.000,89.000 C456.000,87.343 454.657,86.000 453.000,86.000 ZM505.000,86.000 C503.343,86.000 502.000,87.343 502.000,89.000 C502.000,90.657 503.343,92.000 505.000,92.000 C506.657,92.000 508.000,90.657 508.000,89.000 C508.000,87.343 506.657,86.000 505.000,86.000 Z" class="cls-4"/>
  </g>
</svg>
